<svg width="52" height="72" viewBox="0 0 52 72" fill="none" xmlns="http://www.w3.org/2000/svg">
<path d="M38.9531 23.7366C38.9531 23.9276 39 24.1187 39 24.3098C39 25.2652 38.6715 26.125 38.1083 26.7938C37.7329 27.1759 37.2166 27.7014 36.5126 28.3702L36.0903 28.8001C36.5596 31.0452 36.8412 32.956 37.0289 34.5801C37.2166 36.2042 37.1697 37.7806 36.8881 39.4048C36.6065 41.0289 36.0903 42.3664 35.2455 43.4173C33.3682 45.8058 30.0361 47 25.2491 47H24.7329C22.6679 47 20.8845 46.6656 19.4765 46.0446C18.0686 45.5192 16.9892 44.7071 16.1913 43.6084C14.7365 41.6977 14.1733 38.8793 14.5018 35.1533C14.6426 33.6247 14.9711 31.714 15.4404 29.5166C13.7978 28.6568 13 27.2715 13 25.3607C13 24.4531 13.1877 23.5933 13.657 22.7334C14.0794 21.9214 14.6426 21.3481 15.3466 20.966C16.0036 20.6316 16.7076 20.6316 17.4585 20.966C17.5523 20.5361 17.6462 20.1061 17.7401 19.6762C16.8014 19.2941 16.1444 18.7686 15.769 18.0521C15.1588 17.0489 15.1119 15.9025 15.6751 14.6605C16.2852 13.1319 17.787 12.081 20.1336 11.5077C20.1805 11.0778 20.3213 10.6479 20.509 10.218C20.9783 9.07154 21.8231 8.02062 22.9964 7.16078C24.1697 6.30094 25.3899 5.91879 26.704 6.01433C28.6751 6.15764 29.9892 6.96971 30.6931 8.40277C30.9747 8.976 31.1625 9.59699 31.2563 10.3135C32.6173 10.4091 33.6498 10.6479 34.3538 10.9823C35.1986 11.46 35.8087 12.2243 36.231 13.323C36.6065 14.4216 36.5596 15.5681 35.9964 16.7146C35.5271 17.7655 34.8231 18.5298 33.8845 19.103C33.9783 19.6762 34.1191 20.345 34.3069 21.0615C35.2455 20.5361 36.1841 20.5838 37.2166 21.1571C38.1552 21.7781 38.7653 22.6379 38.9531 23.7366ZM21.3069 10.6001C20.7437 11.8421 20.8375 12.7975 21.5415 13.4185C22.0578 13.8962 23.1841 14.2306 24.8736 14.3261C26.657 14.4694 28.065 14.3261 29.1913 13.8484C29.9422 13.5618 30.3177 13.1319 30.3646 12.6064C30.4585 10.9823 30.3177 9.69253 29.8953 8.83269C29.3321 7.68624 28.2527 7.06524 26.657 6.87417C25.5307 6.8264 24.4982 7.16078 23.4657 7.92508C22.4332 8.68939 21.7292 9.59699 21.3069 10.6001ZM16.5668 17.5744C17.1769 18.6253 18.5379 19.2463 20.6029 19.4374C22.9495 19.6285 25.4838 19.6285 28.1588 19.3896C30.787 19.1985 32.5235 18.8641 33.3213 18.3865C34.1661 17.9088 34.7762 17.24 35.2455 16.2846C35.6679 15.377 35.7148 14.4694 35.3863 13.6096C35.0578 12.7975 34.5884 12.2243 34.0253 11.8899C33.4621 11.5555 32.5235 11.3167 31.3032 11.2211C31.3032 11.6988 31.2563 12.1765 31.2563 12.702C31.1625 13.5618 30.5993 14.2306 29.5199 14.6605C28.5812 15.0426 27.361 15.2337 25.9061 15.2337H24.8267C22.9025 15.0904 21.6354 14.7083 20.9783 14.0873C20.4621 13.6573 20.1805 13.1319 20.1336 12.4631C18.1625 12.9886 16.9422 13.8484 16.4729 15.0426C16.0505 15.998 16.0975 16.8579 16.5668 17.5744ZM13.8917 25.3607C13.8917 26.7938 14.4549 27.8925 15.6282 28.5612C15.8159 27.7969 16.0975 26.5549 16.5199 24.883C16.8014 23.5933 17.0361 22.5901 17.2238 21.8736C16.7076 21.587 16.1913 21.5392 15.6751 21.7781C15.1588 22.0647 14.7365 22.5424 14.4079 23.2111C14.0325 23.8799 13.8917 24.5964 13.8917 25.3607ZM34.5415 42.8919C35.0108 42.2231 35.4332 41.5066 35.7148 40.6945C35.9964 39.9302 36.1841 38.9748 36.1841 37.8762C36.1841 36.7775 36.1841 35.7743 36.1372 34.8667C36.0903 34.0069 35.9495 32.8127 35.6679 31.3318C35.3863 29.851 35.1516 28.6568 34.9639 27.7969C34.7762 26.9371 34.4477 25.5996 34.0722 23.8799C33.6029 21.9691 33.2274 20.4883 33.0397 19.4851C31.1625 20.1539 28.1588 20.4405 24.0758 20.4405C22.8087 20.4405 21.6354 20.4405 20.556 20.345C19.852 20.2972 19.1949 20.1539 18.5848 19.9628C18.3502 21.1093 17.9747 22.7812 17.4116 25.0741C16.2383 29.7554 15.5812 33.147 15.3935 35.2489C15.1119 38.736 15.5812 41.3155 16.8953 43.0352C18.3971 45.0415 20.9783 46.0446 24.7329 46.0924C29.5199 46.1879 32.8051 45.0893 34.5415 42.8919ZM37.4043 26.1728C37.8736 25.6951 38.1083 25.0741 38.1083 24.3098C38.1083 24.2143 38.0614 24.071 38.0614 23.8799C37.9206 23.02 37.4982 22.399 36.7942 21.9214C35.9495 21.4437 35.1986 21.4914 34.5415 22.0169L34.917 23.641C35.3394 25.4562 35.6679 26.8415 35.9025 27.7492C36.5596 27.0804 37.0758 26.5549 37.4043 26.1728ZM21.213 25.1696C20.8845 25.1696 20.6029 25.0263 20.3682 24.6919C20.1336 24.3576 20.0397 23.9754 20.0397 23.4977C20.0397 23.02 20.1336 22.6379 20.3682 22.3035C20.6029 22.0169 20.8845 21.8258 21.213 21.8258C21.5415 21.8258 21.8231 22.0169 22.0578 22.3035C22.2924 22.6379 22.4332 23.02 22.4332 23.4977C22.4332 23.9754 22.2924 24.3576 22.0578 24.6919C21.8231 25.0263 21.5415 25.1696 21.213 25.1696ZM29.8953 23.4022C29.8953 22.9723 29.9892 22.5901 30.2238 22.3035C30.4585 22.0169 30.7401 21.8258 31.0686 21.8258C31.3502 21.8258 31.6318 22.0169 31.8664 22.3035C32.1011 22.5901 32.2419 22.9723 32.2419 23.4022C32.2419 23.8321 32.1011 24.2143 31.8664 24.5009C31.6318 24.7875 31.3502 24.9308 31.0686 24.9308C30.7401 24.9308 30.4585 24.7875 30.2238 24.5009C29.9892 24.2143 29.8953 23.8321 29.8953 23.4022ZM22.4332 28.9911C22.1516 28.1791 22.2455 27.367 22.8087 26.6027C22.9495 26.4116 23.1841 25.9339 23.5596 25.2652C23.8412 24.6442 24.0758 24.1665 24.2635 23.8321C24.4513 23.4977 24.6859 23.1633 25.0614 22.7812C25.4368 22.399 25.8123 22.208 26.2347 22.1124C26.8917 22.0169 27.5018 22.4468 28.1588 23.4022C28.769 24.3098 29.2383 25.4085 29.6137 26.6982C29.9422 27.988 29.9892 28.8956 29.7076 29.4211C29.2383 30.1854 28.2058 30.5675 26.6101 30.5675C25.6715 30.5675 24.7798 30.472 23.935 30.2809C23.1841 30.1376 22.7148 29.7077 22.4332 28.9911ZM23.5126 27.1282C23.1372 27.6536 23.0903 28.1791 23.278 28.6568C23.4188 29.0867 23.7004 29.3255 24.1227 29.3733C24.9206 29.6121 25.8592 29.7077 26.9386 29.6599C28.0181 29.6121 28.6751 29.3733 28.9097 28.9911C29.0975 28.6568 29.0036 27.9402 28.722 26.8415C28.3935 25.6951 27.9711 24.7397 27.4549 23.9277C26.9856 23.3067 26.6101 23.02 26.3285 23.02C25.7653 23.1156 25.1083 23.9754 24.3574 25.6473C23.982 26.4116 23.7004 26.8893 23.5126 27.1282ZM31.6318 31.3796C30.3177 33.0037 28.4404 33.8158 25.9061 33.8158H25.4368C23.231 33.7203 21.6823 33.0993 20.7437 31.9528C19.9928 31.093 19.7112 30.1854 19.852 29.1345C19.8989 28.8956 20.0397 28.7523 20.3213 28.7523C20.6029 28.7523 20.7437 28.9434 20.7437 29.23V29.2778C20.6498 30.0421 20.8845 30.7108 21.4477 31.3796C22.1986 32.335 23.5596 32.8127 25.4838 32.9082C27.7365 33.0037 29.426 32.4305 30.6462 31.1407C31.0217 30.7586 31.3032 30.3287 31.491 29.8988C31.6787 29.4688 31.7726 29.1822 31.7726 28.9911V28.8956C31.7726 28.609 31.9134 28.4657 32.2419 28.4657C32.4296 28.4657 32.5704 28.609 32.6643 28.8001C32.7112 29.0389 32.6643 29.4211 32.4765 29.8988C32.2888 30.4242 32.0072 30.9019 31.6318 31.3796ZM21.8231 34.8189C22.3863 34.9623 22.8556 35.2489 23.1372 35.6788C23.4188 36.1087 23.5126 36.5386 23.4657 37.0163C23.3718 37.5418 23.1841 37.9239 22.9025 38.1628C23.231 38.736 23.3718 39.2615 23.3249 39.7391C23.231 40.2168 22.9964 40.599 22.574 40.8856C22.6679 41.4588 22.574 41.9365 22.3863 42.3187C22.1516 42.7008 21.7762 42.8919 21.3069 42.9397C21.1191 42.9874 20.9783 42.9874 20.8375 42.9874H20.7906C19.852 42.9874 18.6787 42.7963 17.3177 42.3187C17.083 42.2709 16.9892 42.1276 16.9892 41.8887C16.9892 41.6021 17.13 41.4588 17.4585 41.4588H17.5523C19.148 41.9843 20.3682 42.1754 21.213 42.032C21.4007 42.032 21.5415 41.9365 21.6354 41.7932C21.7762 41.6021 21.7762 41.2677 21.6354 40.8378V40.6945C21.6354 40.5034 21.6823 40.3601 21.87 40.2646C22.1986 40.1213 22.3863 39.9302 22.4332 39.6436C22.4801 39.2615 22.2924 38.7838 21.8231 38.3061C21.7292 38.2105 21.7292 38.115 21.7292 37.9717C21.7292 37.6851 21.87 37.5418 22.1516 37.5418C22.3863 37.5418 22.5271 37.3507 22.574 36.9208C22.6209 36.252 22.2924 35.8699 21.6354 35.6788C20.509 35.4877 19.0542 35.4877 17.2708 35.6788C17.2238 35.7266 17.1769 35.7266 17.1769 35.7266C16.8953 35.7266 16.7545 35.5833 16.7545 35.2489C16.7545 35.01 16.8484 34.8667 17.13 34.8189C18.9603 34.5323 20.509 34.5323 21.8231 34.8189ZM29.8014 34.6279C30.2708 34.4368 30.9278 34.4368 31.7726 34.5801C32.5704 34.7712 33.1336 34.9145 33.509 35.01C33.8375 35.1056 34.1191 35.2011 34.3069 35.2966C34.4946 35.3922 34.5884 35.4877 34.5884 35.6788C34.5884 36.0132 34.4007 36.1565 34.1191 36.1565C34.0253 36.1565 33.9783 36.1565 33.9314 36.1087C32.2419 35.4877 30.9747 35.2966 30.0361 35.5355C29.4729 35.6788 29.1913 35.9176 29.1913 36.2998C29.1913 36.5386 29.2383 36.7775 29.3321 36.9685C29.426 37.1596 29.5199 37.3029 29.6137 37.3029C29.7545 37.3985 29.8484 37.5418 29.8484 37.7328C29.8484 37.9239 29.7545 38.0195 29.6607 38.115C29.2852 38.3538 29.0975 38.5927 29.0975 38.8793C29.0975 39.1659 29.2852 39.4048 29.6607 39.6914C29.7545 39.7869 29.8484 39.9302 29.8484 40.0735C29.8484 40.2646 29.7545 40.3601 29.6137 40.4557C29.1444 40.7423 28.9097 40.9811 28.8628 41.2677C28.8159 41.4588 28.9097 41.6499 29.0975 41.841C29.2852 42.1276 29.6137 42.2231 30.1769 42.1276C30.6931 42.0798 31.2094 41.9843 31.6787 41.841C32.148 41.6977 32.6173 41.5066 33.0397 41.2677H33.2274C33.509 41.2677 33.6498 41.411 33.6498 41.6977C33.6498 41.8887 33.556 42.032 33.4152 42.1276C32.7581 42.4142 32.148 42.653 31.491 42.7963C30.9278 42.9874 30.4116 43.0352 29.9892 43.0352C29.2852 43.0352 28.769 42.8441 28.4404 42.462C28.065 42.032 27.8773 41.6021 27.9711 41.1244C28.065 40.7423 28.2996 40.3601 28.6751 40.0258C28.3466 39.6436 28.2058 39.2615 28.2058 38.8793C28.2058 38.4971 28.3466 38.0672 28.722 37.6851C28.4404 37.3029 28.2996 36.873 28.2996 36.3953V36.252C28.3935 35.4399 28.8628 34.9145 29.8014 34.6279Z" fill="black"/>
<path d="M21.3069 10.6001C20.7437 11.8421 20.8375 12.7975 21.5415 13.4185C22.0578 13.8962 23.1841 14.2306 24.8736 14.3261C26.657 14.4694 28.065 14.3261 29.1913 13.8484C29.9422 13.5618 30.3177 13.1319 30.3646 12.6064C30.4585 10.9823 30.3177 9.69253 29.8953 8.83269C29.3321 7.68624 28.2527 7.06524 26.657 6.87417C25.5307 6.8264 24.4982 7.16078 23.4657 7.92508C22.4332 8.68939 21.7292 9.59699 21.3069 10.6001Z" fill="#6A6A6A"/>
<path d="M16.5668 17.5744C17.1769 18.6253 18.5379 19.2463 20.6029 19.4374C22.9495 19.6285 25.4838 19.6285 28.1588 19.3896C30.787 19.1985 32.5235 18.8641 33.3213 18.3865C34.1661 17.9088 34.7762 17.24 35.2455 16.2846C35.6679 15.377 35.7148 14.4694 35.3863 13.6096C35.0578 12.7975 34.5884 12.2243 34.0253 11.8899C33.4621 11.5555 32.5235 11.3167 31.3032 11.2211C31.3032 11.6988 31.2563 12.1765 31.2563 12.702C31.1625 13.5618 30.5993 14.2306 29.5199 14.6605C28.5812 15.0426 27.361 15.2337 25.9061 15.2337H24.8267C22.9025 15.0904 21.6354 14.7083 20.9783 14.0873C20.4621 13.6573 20.1805 13.1319 20.1336 12.4631C18.1625 12.9886 16.9422 13.8484 16.4729 15.0426C16.0505 15.998 16.0975 16.8579 16.5668 17.5744Z" fill="#6A6A6A"/>
<path d="M23.5126 27.1282C23.1372 27.6536 23.0903 28.1791 23.278 28.6568C23.4188 29.0867 23.7004 29.3255 24.1227 29.3733C24.9206 29.6121 25.8592 29.7077 26.9386 29.6599C28.0181 29.6121 28.6751 29.3733 28.9097 28.9911C29.0975 28.6568 29.0036 27.9402 28.722 26.8415C28.3935 25.6951 27.9711 24.7397 27.4549 23.9277C26.9856 23.3067 26.6101 23.02 26.3285 23.02C25.7653 23.1156 25.1083 23.9754 24.3574 25.6473C23.982 26.4116 23.7004 26.8893 23.5126 27.1282Z" fill="#6A6A6A"/>
<path fill-rule="evenodd" clip-rule="evenodd" d="M34.5415 42.8919C35.0108 42.2231 35.4332 41.5066 35.7148 40.6945C35.9964 39.9302 36.1841 38.9748 36.1841 37.8762C36.1841 36.7775 36.1841 35.7743 36.1372 34.8667C36.0903 34.0069 35.9495 32.8127 35.6679 31.3318C35.3863 29.851 35.1516 28.6568 34.9639 27.7969C34.7762 26.9371 34.4477 25.5996 34.0722 23.8799C33.6029 21.9691 33.2274 20.4883 33.0397 19.4851C31.1625 20.1539 28.1588 20.4405 24.0758 20.4405C22.8087 20.4405 21.6354 20.4405 20.556 20.345C19.852 20.2972 19.1949 20.1539 18.5848 19.9628C18.3502 21.1093 17.9747 22.7812 17.4116 25.0741C16.2383 29.7554 15.5812 33.147 15.3935 35.2489C15.1119 38.736 15.5812 41.3155 16.8953 43.0352C18.3971 45.0415 20.9783 46.0446 24.7329 46.0924C29.5199 46.1879 32.8051 45.0893 34.5415 42.8919ZM20.3682 24.6919C20.6029 25.0263 20.8845 25.1696 21.213 25.1696C21.5415 25.1696 21.8231 25.0263 22.0578 24.6919C22.2924 24.3576 22.4332 23.9754 22.4332 23.4977C22.4332 23.02 22.2924 22.6379 22.0578 22.3035C21.8231 22.0169 21.5415 21.8258 21.213 21.8258C20.8845 21.8258 20.6029 22.0169 20.3682 22.3035C20.1336 22.6379 20.0397 23.02 20.0397 23.4977C20.0397 23.9754 20.1336 24.3576 20.3682 24.6919ZM30.2238 22.3035C29.9892 22.5901 29.8953 22.9723 29.8953 23.4022C29.8953 23.8321 29.9892 24.2143 30.2238 24.5009C30.4585 24.7875 30.7401 24.9308 31.0686 24.9308C31.3502 24.9308 31.6318 24.7875 31.8664 24.5009C32.1011 24.2143 32.2419 23.8321 32.2419 23.4022C32.2419 22.9723 32.1011 22.5901 31.8664 22.3035C31.6318 22.0169 31.3502 21.8258 31.0686 21.8258C30.7401 21.8258 30.4585 22.0169 30.2238 22.3035ZM22.8087 26.6027C22.2455 27.367 22.1516 28.1791 22.4332 28.9911C22.7148 29.7077 23.1841 30.1376 23.935 30.2809C24.7798 30.472 25.6715 30.5675 26.6101 30.5675C28.2058 30.5675 29.2383 30.1854 29.7076 29.4211C29.9892 28.8956 29.9422 27.988 29.6137 26.6982C29.2383 25.4085 28.769 24.3098 28.1588 23.4022C27.5018 22.4468 26.8917 22.0169 26.2347 22.1124C25.8123 22.208 25.4368 22.399 25.0614 22.7812C24.6859 23.1633 24.4513 23.4977 24.2635 23.8321C24.0758 24.1665 23.8412 24.6442 23.5596 25.2652C23.1841 25.9339 22.9495 26.4116 22.8087 26.6027ZM25.9061 33.8158C28.4404 33.8158 30.3177 33.0037 31.6318 31.3796C32.0072 30.9019 32.2888 30.4242 32.4765 29.8988C32.6643 29.4211 32.7112 29.0389 32.6643 28.8001C32.5704 28.609 32.4296 28.4657 32.2419 28.4657C31.9134 28.4657 31.7726 28.609 31.7726 28.8956V28.9911C31.7726 29.1822 31.6787 29.4688 31.491 29.8988C31.3032 30.3287 31.0217 30.7586 30.6462 31.1407C29.426 32.4305 27.7365 33.0037 25.4838 32.9082C23.5596 32.8127 22.1986 32.335 21.4477 31.3796C20.8845 30.7108 20.6498 30.0421 20.7437 29.2778V29.23C20.7437 28.9434 20.6029 28.7523 20.3213 28.7523C20.0397 28.7523 19.8989 28.8956 19.852 29.1345C19.7112 30.1854 19.9928 31.093 20.7437 31.9528C21.6823 33.0993 23.231 33.7203 25.4368 33.8158H25.9061ZM23.1372 35.6788C22.8556 35.2489 22.3863 34.9623 21.8231 34.8189C20.509 34.5323 18.9603 34.5323 17.13 34.8189C16.8484 34.8667 16.7545 35.01 16.7545 35.2489C16.7545 35.5833 16.8953 35.7266 17.1769 35.7266C17.1769 35.7266 17.2238 35.7266 17.2708 35.6788C19.0542 35.4877 20.509 35.4877 21.6354 35.6788C22.2924 35.8699 22.6209 36.252 22.574 36.9208C22.5271 37.3507 22.3863 37.5418 22.1516 37.5418C21.87 37.5418 21.7292 37.6851 21.7292 37.9717C21.7292 38.115 21.7292 38.2105 21.8231 38.3061C22.2924 38.7838 22.4801 39.2615 22.4332 39.6436C22.3863 39.9302 22.1986 40.1213 21.87 40.2646C21.6823 40.3601 21.6354 40.5034 21.6354 40.6945V40.8378C21.7762 41.2677 21.7762 41.6021 21.6354 41.7932C21.5415 41.9365 21.4007 42.032 21.213 42.032C20.3682 42.1754 19.148 41.9843 17.5523 41.4588H17.4585C17.13 41.4588 16.9892 41.6021 16.9892 41.8887C16.9892 42.1276 17.083 42.2709 17.3177 42.3187C18.6787 42.7963 19.852 42.9874 20.7906 42.9874H20.8375C20.9783 42.9874 21.1191 42.9874 21.3069 42.9397C21.7762 42.8919 22.1516 42.7008 22.3863 42.3187C22.574 41.9365 22.6679 41.4588 22.574 40.8856C22.9964 40.599 23.231 40.2168 23.3249 39.7391C23.3718 39.2615 23.231 38.736 22.9025 38.1628C23.1841 37.9239 23.3718 37.5418 23.4657 37.0163C23.5126 36.5386 23.4188 36.1087 23.1372 35.6788ZM31.7726 34.5801C30.9278 34.4368 30.2708 34.4368 29.8014 34.6279C28.8628 34.9145 28.3935 35.4399 28.2996 36.252V36.3953C28.2996 36.873 28.4404 37.3029 28.722 37.6851C28.3466 38.0672 28.2058 38.4971 28.2058 38.8793C28.2058 39.2615 28.3466 39.6436 28.6751 40.0258C28.2996 40.3601 28.065 40.7423 27.9711 41.1244C27.8773 41.6021 28.065 42.032 28.4404 42.462C28.769 42.8441 29.2852 43.0352 29.9892 43.0352C30.4116 43.0352 30.9278 42.9874 31.491 42.7963C32.148 42.653 32.7581 42.4142 33.4152 42.1276C33.556 42.032 33.6498 41.8887 33.6498 41.6977C33.6498 41.411 33.509 41.2677 33.2274 41.2677H33.0397C32.6173 41.5066 32.148 41.6977 31.6787 41.841C31.2094 41.9843 30.6931 42.0798 30.1769 42.1276C29.6137 42.2231 29.2852 42.1276 29.0975 41.841C28.9097 41.6499 28.8159 41.4588 28.8628 41.2677C28.9097 40.9811 29.1444 40.7423 29.6137 40.4557C29.7545 40.3601 29.8484 40.2646 29.8484 40.0735C29.8484 39.9302 29.7545 39.7869 29.6607 39.6914C29.2852 39.4048 29.0975 39.1659 29.0975 38.8793C29.0975 38.5927 29.2852 38.3538 29.6607 38.115C29.7545 38.0195 29.8484 37.9239 29.8484 37.7328C29.8484 37.5418 29.7545 37.3985 29.6137 37.3029C29.5199 37.3029 29.426 37.1596 29.3321 36.9685C29.2383 36.7775 29.1913 36.5386 29.1913 36.2998C29.1913 35.9176 29.4729 35.6788 30.0361 35.5355C30.9747 35.2966 32.2419 35.4877 33.9314 36.1087C33.9783 36.1565 34.0253 36.1565 34.1191 36.1565C34.4007 36.1565 34.5884 36.0132 34.5884 35.6788C34.5884 35.4877 34.4946 35.3922 34.3069 35.2966C34.1191 35.2011 33.8375 35.1056 33.509 35.01C33.1336 34.9145 32.5704 34.7712 31.7726 34.5801Z" fill="#6A6A6A"/>
<path d="M37.4043 26.1728C37.8736 25.6951 38.1083 25.0741 38.1083 24.3098C38.1083 24.2143 38.0614 24.071 38.0614 23.8799C37.9206 23.02 37.4982 22.399 36.7942 21.9214C35.9495 21.4437 35.1986 21.4914 34.5415 22.0169L34.917 23.641C35.3394 25.4562 35.6679 26.8415 35.9025 27.7492C36.5596 27.0804 37.0758 26.5549 37.4043 26.1728Z" fill="#6A6A6A"/>
<path d="M13.8917 25.3607C13.8917 26.7938 14.4549 27.8925 15.6282 28.5612C15.8159 27.7969 16.0975 26.5549 16.5199 24.883C16.8014 23.5933 17.0361 22.5901 17.2238 21.8736C16.7076 21.587 16.1913 21.5392 15.6751 21.7781C15.1588 22.0647 14.7365 22.5424 14.4079 23.2111C14.0325 23.8799 13.8917 24.5964 13.8917 25.3607Z" fill="#6A6A6A"/>
<path d="M24.4414 55.9531V68.1074H23.3613V55.9531H24.4414ZM20.8457 57.2793C20.832 60.7793 19.2051 63.8691 15.1309 65.8242L14.543 64.9492C17.8311 63.3906 19.5059 61.0596 19.752 58.1543H15.1035V57.2793H20.8457ZM32.7266 57.0605V57.9629H28.1055V60.4785H32.4531V61.3535H28.1055V64.293C30.293 64.293 31.8311 64.2041 33.6562 63.8965L33.7793 64.7852C31.8789 65.0996 30.2793 65.168 27.9824 65.1816H27.0254V57.0605H32.7266ZM35.8984 55.9531V60.8477H37.9355V61.7637H35.8984V68.1074H34.832V55.9531H35.8984Z" fill="#1C1C1C"/>
</svg>
