<svg width="52" height="72" viewBox="0 0 52 72" fill="none" xmlns="http://www.w3.org/2000/svg">
<path d="M20.9718 26.9749L21.9887 27.2593C21.8757 27.7144 21.5367 28.1696 21.0282 28.5678C20.5198 28.966 19.8418 29.1367 18.9379 29.1367C18.7119 29.1367 18.4859 29.1367 18.2599 29.0798C16.9605 28.966 16.0565 28.454 15.4915 27.5438C15.209 27.2024 15.0395 26.7473 15.0395 26.2353L16.113 26.1784C16.113 26.5198 16.226 26.8042 16.452 27.0318C16.791 27.6007 17.4689 27.942 18.3729 27.9989C18.9944 28.1127 19.5028 28.0558 19.9548 27.8851C20.4068 27.7144 20.6328 27.5438 20.7458 27.3731C20.8588 27.2593 20.9153 27.0887 20.9718 26.9749ZM10.8023 15.7676C9.8983 15.085 9.55932 13.8334 9.78531 12.0129C9.89831 11.1027 10.1808 10.1925 10.6893 9.28223C11.1412 8.42889 11.8192 7.80311 12.7232 7.40488C13.9661 6.83598 16.339 6.89287 19.8418 7.57555C21.5367 7.91688 23.1186 8.31511 24.5876 8.71334C27.2429 9.50979 29.0508 10.5907 29.9548 11.956C30.4068 12.8094 30.6328 13.8903 30.5763 15.2556V15.5401C30.4633 16.5641 30.0113 17.5881 29.2203 18.669C28.2034 19.9206 27.0169 20.6033 25.7175 20.6601H25.3785C24.7006 20.6601 24.0791 20.6033 23.4011 20.3757C22.7232 20.205 22.1582 19.9775 21.7627 19.7499C21.3107 19.5224 20.7458 19.2379 19.9548 18.7828C19.1638 18.3277 18.5989 18.0432 18.2034 17.8157C17.2429 17.3605 15.887 16.9623 14.0791 16.7348C12.4407 16.5641 11.3672 16.2228 10.8023 15.7676ZM10.8588 12.1267H10.8023C10.6328 13.549 10.8588 14.4592 11.4237 14.9143C11.8192 15.2556 12.7797 15.5401 14.2486 15.6539C16.1695 15.9383 17.6384 16.3365 18.6554 16.8485C19.1073 17.0761 19.6723 17.4174 20.4633 17.8157C21.2542 18.2708 21.8192 18.6121 22.2712 18.8397C22.6667 19.0672 23.1751 19.2379 23.8531 19.4086C24.4746 19.5792 25.096 19.6361 25.661 19.5792C26.678 19.5792 27.5819 19.0103 28.3729 17.9863C29.0508 17.0761 29.4463 16.2796 29.5028 15.4832V15.1419C29.5593 14.061 29.3898 13.2076 29.0508 12.5249C28.2599 11.3871 26.678 10.42 24.3051 9.73735C20.5763 8.65645 17.5254 8.08755 15.1525 8.08755C14.2486 8.08755 13.5706 8.20133 13.1186 8.372C11.8192 8.99778 11.0847 10.2494 10.8588 12.1267ZM45.9435 44.2124C45.9435 44.2693 46 44.3262 46 44.3831C46 44.6675 45.8305 44.8382 45.6045 44.8951C44.2486 45.2933 42.2712 45.1795 39.6723 44.4969H39.6158C37.7514 44.0417 36.3955 43.8711 35.6045 43.9849C34.983 44.0986 34.1921 44.2693 33.2881 44.5537C32.2712 44.8951 31.4237 45.0658 30.7458 45.1226C30.0678 45.1795 28.8249 45.1226 26.9605 44.8951H26.904C25.661 44.7244 23.9661 44.2124 21.9322 43.3022C20.8588 42.9039 20.0113 42.6195 19.4463 42.3919C18.8249 42.1644 17.9774 41.9937 16.9605 41.8231C15.887 41.6524 14.8136 41.5955 13.7401 41.7093C12.6102 41.8231 11.6497 42.0506 10.8023 42.3919C10.7458 42.5057 10.6893 42.5057 10.6328 42.5057C9.72881 42.9608 8.99435 43.5866 8.37288 44.3262C7.75141 45.0658 7.29944 45.8053 7.07345 46.6018C6.96045 46.8862 6.79096 47 6.56497 47H6.45198C6.11299 46.9431 6 46.7724 6 46.488C6 46.488 6 46.4311 6.0565 46.3742C6.28249 45.4071 6.79096 44.4969 7.52542 43.6435C8.20339 42.8471 9.05085 42.1644 10.0678 41.5955C10.6328 39.3199 11.7062 37.3288 13.1751 35.7359C12.2147 35.0532 11.3107 34.3136 10.5198 33.4603C8.25989 31.2416 6.96045 28.966 6.62147 26.6335C6.45198 25.2682 6.39548 24.0735 6.45198 23.0495C6.45198 22.0255 6.62147 20.9446 6.96045 19.8068C7.24294 18.669 7.46893 17.8726 7.69491 17.3605C7.86441 16.9054 8.0339 16.4503 8.25989 15.9952C7.69491 14.4592 7.69492 12.5818 8.37288 10.42C8.82486 8.884 9.78531 7.57555 11.3672 6.55153C12.6102 5.69819 13.8531 5.18618 15.096 5.01551C16.3955 4.90174 19.2768 5.41374 23.6836 6.55153C26.0565 7.12043 27.9774 7.91688 29.4463 8.94089C30.9153 9.96491 31.8192 11.1027 32.2712 12.468C32.4972 13.2076 32.5537 14.0041 32.4972 14.9143C33.1186 15.4832 33.6836 16.1659 34.1921 16.8485C35.435 18.7259 36.0565 20.7739 36.0565 22.9926V23.1633C36 25.6095 35.3785 28.1696 34.2486 30.7865C33.7401 31.9243 33.2316 32.8914 32.6667 33.6878C34.1356 33.3465 35.661 33.2896 37.3559 33.5172C39.9548 33.9154 41.8757 34.8256 43.1186 36.3048C44.3616 37.7839 44.8136 39.6612 44.5876 42.0506C44.4746 42.8471 44.3051 43.5297 44.1356 44.0417C44.4746 44.0417 44.8701 43.9849 45.2655 43.8711C45.322 43.8711 45.3785 43.8142 45.435 43.8142C45.661 43.8142 45.8305 43.9849 45.9435 44.2124ZM37.1864 34.5981C35.435 34.3705 33.8531 34.4274 32.4407 34.8825C32.1017 35.4514 31.9887 35.9065 32.0452 36.3048C32.0452 36.703 32.2712 37.0443 32.6667 37.2719C33.0056 37.5563 33.4011 37.7839 33.8531 38.0115H33.9096C35.3785 38.8079 36.791 39.0924 38.0339 38.8648C38.5424 38.8079 39.0508 38.6372 39.6158 38.4097C40.5763 38.0683 41.3107 37.4426 41.8757 36.5892C40.8023 35.5652 39.2203 34.9394 37.1864 34.5981ZM24.9831 27.8851C26.113 25.894 26.6215 24.1304 26.6215 22.5375C26.1695 22.6513 25.774 22.7082 25.3785 22.7082C24.3051 22.7082 22.7232 22.253 20.6328 21.3428C18.9944 20.6601 17.017 20.0912 14.6441 19.6361C13.5141 19.4086 12.6667 19.2379 12.1017 19.0103C11.3672 21.1721 11.3672 23.334 12.0452 25.4958C12.4972 26.918 13.3446 27.9989 14.5876 28.7385C15.8305 29.5349 17.2429 29.99 18.7119 30.1038C20.1243 30.2745 21.4237 30.1607 22.5537 29.7056C23.6836 29.3074 24.5311 28.6816 24.9831 27.8851ZM9.38983 10.7045C9.05085 11.6716 8.88136 12.5818 8.88136 13.4921C8.88136 14.4023 9.05085 15.2556 9.44633 16.0521C9.84181 16.8485 10.4633 17.4174 11.3107 17.7019C12.1017 17.9863 13.2881 18.2708 14.8701 18.5552C17.2429 19.0672 19.3333 19.693 21.0282 20.3757C23.0057 21.229 24.4181 21.6273 25.322 21.6273C26.226 21.6273 27.2429 21.229 28.4294 20.4326C29.5593 19.6361 30.4068 18.4983 30.9718 16.9623C31.5367 15.4832 31.5932 14.061 31.2542 12.8094C30.8588 11.6716 30.0113 10.5907 28.6554 9.68046C27.2994 8.82712 25.548 8.14444 23.4576 7.63243V7.57555C19.6158 6.60842 17.017 6.09642 15.6045 6.09642H15.2655C14.2486 6.26709 13.0621 6.7222 11.8192 7.51866C10.5763 8.31511 9.72881 9.39601 9.38983 10.7045ZM31.7062 43.8711C31.2542 42.2213 31.3672 40.799 32.0452 39.5475C32.2147 39.2061 32.4407 38.9217 32.7232 38.6372C32.4407 38.5235 32.2147 38.3528 31.9887 38.1252C31.3672 37.6701 31.0282 37.1012 30.9718 36.4185V36.1341C30.9718 35.9065 30.9718 35.6221 31.0282 35.3945C29.7853 36.0772 28.7684 36.9874 28.0339 38.1252C27.1299 39.4906 26.9605 41.4248 27.4689 43.8711C29.0508 44.1555 30.4633 44.1555 31.7062 43.8711ZM39.5028 43.3591C40.0678 42.0506 40.1243 40.799 39.5593 39.6044C39.1073 39.775 38.6554 39.8888 38.2034 39.9457C37.9209 40.0026 37.6949 40.0026 37.4689 40.0026H37.4124C36.1695 40.0026 34.9831 39.7181 33.7401 39.1492C32.5537 40.1164 32.2147 41.5955 32.7797 43.5866L32.9492 43.5297C33.9661 43.2453 34.7571 43.0177 35.435 42.904C36.339 42.7902 37.6949 42.9608 39.5028 43.3591ZM43.5141 41.9368C43.6836 40.1164 43.4011 38.6372 42.6102 37.4426C42.0452 38.239 41.3107 38.8079 40.5198 39.2061C41.1977 40.6284 41.1977 42.1075 40.5763 43.6435C41.5367 43.8711 42.3277 44.0417 42.9492 44.0417C43.1751 43.5297 43.4011 42.8471 43.5141 41.9368ZM17.017 23.1064C16.904 23.334 16.791 23.3908 16.565 23.3908C16.0565 23.3908 15.435 23.6184 14.6441 23.9597C14.5311 24.0166 14.4746 24.0166 14.4181 24.0166C14.0226 24.0166 13.8531 23.846 13.8531 23.5046C13.8531 23.2771 13.9661 23.1064 14.1921 22.9926L14.9831 22.6513H14.8701C14.5876 22.6513 14.3616 22.7082 14.1356 22.7651H13.9661C13.5706 22.7651 13.4011 22.5944 13.4011 22.253C13.4011 22.0255 13.5141 21.8548 13.7966 21.741C13.9096 21.6842 14.1356 21.6273 14.4181 21.5704C14.6441 21.5704 15.0395 21.5704 15.6045 21.6842C16.1695 21.7979 16.6215 22.0824 16.9605 22.5375C17.017 22.6513 17.0734 22.7651 17.0734 22.8788C17.0734 22.9926 17.017 23.0495 17.017 23.1064ZM17.9209 25.7233C17.3559 25.2682 17.2429 24.6424 17.5819 23.9597L18.5424 24.4149C18.4294 24.6424 18.4859 24.8131 18.6554 24.9269C18.7684 25.0406 18.8249 25.2113 18.8249 25.3251C18.8249 25.7233 18.5989 25.894 18.2599 25.894C18.0904 25.894 17.9774 25.8371 17.9209 25.7233ZM21.5367 22.6513C21.9887 22.5944 22.2712 22.8219 22.4407 23.334C22.5537 23.846 22.4972 24.3011 22.2147 24.7562C22.1017 24.9269 21.9322 25.0406 21.7062 25.0406C21.4802 25.0975 21.2542 25.0406 21.1412 24.87C20.9718 24.6993 20.9153 24.4149 21.0282 23.9597V23.4477C21.0282 23.2202 21.0283 22.9926 21.1412 22.8788C21.1977 22.7651 21.3107 22.6513 21.5367 22.6513ZM26.1695 12.3543C25.9435 12.2405 25.887 12.0698 25.887 11.8423C25.887 11.5009 26.0565 11.3303 26.452 11.3303C26.5085 11.3303 26.565 11.3871 26.678 11.3871C27.1299 11.6716 27.5819 12.0129 27.9774 12.468C28.7684 13.4921 28.9379 14.6299 28.5424 15.8814C28.4294 16.1659 28.2599 16.2796 28.0339 16.2796C27.6384 16.2796 27.4689 16.109 27.4689 15.7676C27.4689 15.7108 27.4689 15.6539 27.5254 15.5401C27.6949 14.9143 27.6384 14.3454 27.4124 13.7765C27.1864 13.2076 26.9605 12.8663 26.7345 12.6956C26.5085 12.5818 26.339 12.468 26.1695 12.3543ZM27.5254 16.621C27.7514 16.7348 27.8644 16.9054 27.8644 17.133C27.8644 17.2468 27.8079 17.3037 27.8079 17.3037C27.6949 17.7019 27.4124 18.0432 27.0734 18.3846C26.9605 18.4983 26.791 18.4983 26.678 18.4983C26.339 18.4983 26.1695 18.3277 26.1695 17.9863C26.1695 17.8726 26.226 17.7019 26.339 17.5881C26.5085 17.4174 26.678 17.1899 26.8475 16.9054C26.904 16.6779 27.0734 16.5641 27.2994 16.5641C27.3559 16.5641 27.4124 16.621 27.5254 16.621Z" fill="black"/>
<path fill-rule="evenodd" clip-rule="evenodd" d="M10.8588 12.1267H10.8023C10.6328 13.549 10.8588 14.4592 11.4237 14.9143C11.8192 15.2556 12.7797 15.5401 14.2486 15.6539C16.1695 15.9383 17.6384 16.3365 18.6554 16.8485C19.1073 17.0761 19.6723 17.4174 20.4633 17.8157C21.2542 18.2708 21.8192 18.6121 22.2712 18.8397C22.6667 19.0672 23.1751 19.2379 23.8531 19.4086C24.4746 19.5792 25.096 19.6361 25.661 19.5792C26.678 19.5792 27.5819 19.0103 28.3729 17.9863C29.0508 17.0761 29.4463 16.2796 29.5028 15.4832V15.1419C29.5593 14.061 29.3898 13.2076 29.0508 12.5249C28.2599 11.3871 26.678 10.42 24.3051 9.73735C20.5763 8.65645 17.5254 8.08755 15.1525 8.08755C14.2486 8.08755 13.5706 8.20133 13.1186 8.372C11.8192 8.99778 11.0847 10.2494 10.8588 12.1267ZM25.887 11.8423C25.887 12.0698 25.9435 12.2405 26.1695 12.3543C26.339 12.468 26.5085 12.5818 26.7345 12.6956C26.9605 12.8663 27.1864 13.2076 27.4124 13.7765C27.6384 14.3454 27.6949 14.9143 27.5254 15.5401C27.4689 15.6539 27.4689 15.7108 27.4689 15.7676C27.4689 16.109 27.6384 16.2796 28.0339 16.2796C28.2599 16.2796 28.4294 16.1659 28.5424 15.8814C28.9379 14.6299 28.7684 13.4921 27.9774 12.468C27.5819 12.0129 27.1299 11.6716 26.678 11.3871C26.565 11.3871 26.5085 11.3303 26.452 11.3303C26.0565 11.3303 25.887 11.5009 25.887 11.8423ZM27.8644 17.133C27.8644 16.9054 27.7514 16.7348 27.5254 16.621C27.4124 16.621 27.3559 16.5641 27.2994 16.5641C27.0734 16.5641 26.904 16.6779 26.8475 16.9054C26.678 17.1899 26.5085 17.4174 26.339 17.5881C26.226 17.7019 26.1695 17.8726 26.1695 17.9863C26.1695 18.3277 26.339 18.4983 26.678 18.4983C26.791 18.4983 26.9605 18.4983 27.0734 18.3846C27.4124 18.0432 27.6949 17.7019 27.8079 17.3037C27.8079 17.3037 27.8644 17.2468 27.8644 17.133Z" fill="#8CE3FF"/>
<path fill-rule="evenodd" clip-rule="evenodd" d="M9.38983 10.7045C9.05085 11.6716 8.88136 12.5818 8.88136 13.4921C8.88136 14.4023 9.05085 15.2556 9.44633 16.0521C9.84181 16.8485 10.4633 17.4174 11.3107 17.7019C12.1017 17.9863 13.2881 18.2708 14.8701 18.5552C17.2429 19.0672 19.3333 19.693 21.0282 20.3757C23.0057 21.229 24.4181 21.6273 25.322 21.6273C26.226 21.6273 27.2429 21.229 28.4294 20.4326C29.5593 19.6361 30.4068 18.4983 30.9718 16.9623C31.5367 15.4832 31.5932 14.061 31.2542 12.8094C30.8588 11.6716 30.0113 10.5907 28.6554 9.68046C27.2994 8.82712 25.548 8.14444 23.4576 7.63243V7.57555C19.6158 6.60842 17.017 6.09642 15.6045 6.09642H15.2655C14.2486 6.26709 13.0621 6.7222 11.8192 7.51866C10.5763 8.31511 9.72881 9.39601 9.38983 10.7045ZM9.78531 12.0129C9.55932 13.8334 9.8983 15.085 10.8023 15.7676C11.3672 16.2228 12.4407 16.5641 14.0791 16.7348C15.887 16.9623 17.2429 17.3605 18.2034 17.8157C18.5989 18.0432 19.1638 18.3277 19.9548 18.7828C20.7458 19.2379 21.3107 19.5224 21.7627 19.7499C22.1582 19.9775 22.7232 20.205 23.4011 20.3757C24.0791 20.6033 24.7006 20.6601 25.3785 20.6601H25.7175C27.0169 20.6033 28.2034 19.9206 29.2203 18.669C30.0113 17.5881 30.4633 16.5641 30.5763 15.5401V15.2556C30.6328 13.8903 30.4068 12.8094 29.9548 11.956C29.0508 10.5907 27.2429 9.50979 24.5876 8.71334C23.1186 8.31511 21.5367 7.91688 19.8418 7.57555C16.339 6.89287 13.9661 6.83598 12.7232 7.40488C11.8192 7.80311 11.1412 8.42889 10.6893 9.28223C10.1808 10.1925 9.89831 11.1027 9.78531 12.0129Z" fill="#484848"/>
<path d="M37.1864 34.5981C35.435 34.3705 33.8531 34.4274 32.4407 34.8825C32.1017 35.4514 31.9887 35.9065 32.0452 36.3048C32.0452 36.703 32.2712 37.0443 32.6667 37.2719C33.0056 37.5563 33.4011 37.7839 33.8531 38.0115H33.9096C35.3785 38.8079 36.791 39.0924 38.0339 38.8648C38.5424 38.8079 39.0508 38.6372 39.6158 38.4097C40.5763 38.0683 41.3107 37.4426 41.8757 36.5892C40.8023 35.5652 39.2203 34.9394 37.1864 34.5981Z" fill="#FFC960"/>
<path d="M17.6602 56.8965C19.3145 56.9102 20.5039 58.3252 20.6816 60.6016H23.4023V55.9531H24.4688V68.1348H23.4023V61.4902H20.6953C20.5654 63.8691 19.3555 65.3594 17.6602 65.3594C15.8691 65.3594 14.6113 63.7188 14.6113 61.1348C14.6113 58.5508 15.8691 56.9102 17.6602 56.8965ZM17.6602 57.8535C16.457 57.8672 15.6367 59.1523 15.6367 61.1348C15.6367 63.1172 16.457 64.4023 17.6602 64.4023C18.8496 64.4023 19.6836 63.1172 19.6836 61.1348C19.6836 59.1523 18.8496 57.8672 17.6602 57.8535ZM29.8418 56.5273C31.4756 56.5137 32.7129 57.4639 32.9453 58.8652H35.4883V55.9531H36.5684V62.4746H35.4883V59.7539H32.959C32.7402 61.1895 31.4893 62.1465 29.8418 62.1465C27.9961 62.1465 26.6836 60.998 26.6836 59.3301C26.6836 57.6758 27.9961 56.5137 29.8418 56.5273ZM29.8418 57.4434C28.5977 57.4297 27.709 58.209 27.709 59.3301C27.709 60.4375 28.5977 61.2441 29.8418 61.2441C31.0723 61.2441 31.9473 60.4375 31.9473 59.3301C31.9473 58.209 31.0723 57.4297 29.8418 57.4434ZM29.8145 63.0898V64.6348H35.4883V63.0898H36.5684V67.9434H28.7344V63.0898H29.8145ZM29.8145 67.0684H35.4883V65.4961H29.8145V67.0684Z" fill="#1C1C1C"/>
</svg>
