<svg width="237" height="48" viewBox="0 0 237 48" fill="none" xmlns="http://www.w3.org/2000/svg">
<path d="M42.25 0.199998C42.4 3.1 42.5 4.55 42.55 4.65C42.85 7.15 42.75 10.75 42.35 15.45C42.25 16.25 42.15 17.4 41.95 18.85C41.75 20.3 41.65 21.25 41.65 21.75C41.55 22.55 41.1 22.95 40.3 22.95C39.9 22.95 38.8 22.9 36.9 22.9C35 22.9 33.75 22.9 33.2 22.9C32.6 22.9 32.25 22.45 32.1 21.55C32 21.35 31.95 21.1 31.95 20.8C31.9 20.55 31.85 20.3 31.85 20.1C31.85 19.9 31.8 19.65 31.8 19.35C31.8 19.05 31.8 18.8 31.8 18.6C31.8 18.45 31.8 18.2 31.8 17.85C31.8 17.5 31.85 17.25 31.85 17.15C31.85 17.05 31.85 16.75 31.9 16.35C31.9 15.95 31.95 15.75 31.95 15.65C31.95 15.6 32 15.35 32.05 14.9C32.05 14.45 32.1 14.2 32.1 14.15C32.2 13.15 32.25 10.95 32.35 7.55V4.9V2.2C32.35 1.7 32.65 1.3 33.25 1C34.55 0.449998 37.4 0.149999 41.85 0.0499969C41.85 0.0499969 42 0.0999992 42.25 0.199998ZM15.15 25.4C11.4 25.5 8 24.7 4.9 22.9C3 21.85 1.7 20.1 1.1 17.6C0.3 14.6 0.2 12.2 0.8 10.3C1.1 9.3 1.6 8.35 2.25 7.45C3.5 5.75 4.6 4.45 5.55 3.55C6.95 2.25 8.8 1.75 11 2C13.85 2.4 16.9 3.55 20.1 5.45C21.9 6.55 23 8.15 23.4 10.35C23.95 13.85 24 16.7 23.5 18.85C23 21 22.05 22.65 20.6 23.85C19.15 25.05 17.35 25.6 15.15 25.4ZM9.7 14.7C10.3 16.7 10.7 17.85 10.85 18.05C10.95 18.25 11.1 18.5 11.35 18.7C11.6 18.9 11.8 19 12 18.95C13.1 18.85 14.05 18.6 14.8 18.1C15.5 17.6 16 16.95 16.2 16.1C16.4 15.25 16.2 14.25 15.6 13.05C14.7 11.25 13.3 10.65 11.4 11.2C10.3 11.55 9.75 12.7 9.7 14.7ZM8.75 33.7C8.65 33.7 8.4 33.75 8 33.75C7.6 33.8 7.3 33.8 7.15 33.8C6.95 33.8 6.75 33.8 6.45 33.75C6.15 33.7 5.9 33.6 5.8 33.5C5.65 33.4 5.5 33.2 5.35 32.95C5.2 32.7 5.1 32.4 5.1 32C5.05 31.8 5 31.4 4.9 30.85C4.8 30.35 4.75 29.9 4.75 29.5C4.75 29 4.8 28.45 4.95 27.95C4.95 27.75 5.1 27.5 5.4 27.25C5.7 27.05 6 26.9 6.35 26.9C19.85 26.85 29.25 27 34.65 27.35C35.75 27.45 36.6 27.55 37.25 27.75C38 28.05 38.45 28.4 38.6 28.85C38.75 29.55 38.85 30.25 38.85 30.95C38.85 31.8 38.7 32.8 38.5 33.95C38.1 35.9 37.1 37.3 35.45 38.1C34.55 38.55 32.9 38.9 30.55 39.1C29.7 39.2 28.5 39.25 26.9 39.25C25.3 39.3 24.2 39.35 23.55 39.4C23.45 39.4 21.65 39.45 18.2 39.5C14.7 39.55 12.8 39.6 12.45 39.7L12.5 41.05C13.1 41.05 15.35 41.05 19.25 40.95C23.15 40.9 25.45 40.85 26.05 40.85C27.4 40.85 28.6 40.85 29.65 40.8C30.35 40.8 31.45 40.75 32.9 40.65C34.3 40.55 35.35 40.5 36.05 40.45H36.15C37.05 40.45 37.55 40.8 37.55 41.5V41.75C37.25 43.3 37 44.5 36.8 45.3C36.55 46.1 36.15 46.65 35.6 46.95C35.05 47.25 34.15 47.4 32.85 47.4H32.25C30.95 47.4 29.1 47.3 26.75 47.15C24.4 47 22.75 46.9 21.8 46.8C20.3 46.75 19 46.75 17.85 46.8C16.7 46.9 15.4 46.9 14 46.8C12.6 46.75 11.35 46.6 10.25 46.35C8.75 46.05 7.7 45.55 7.1 44.75C6.5 43.95 6.15 42.9 5.95 41.55C5.9 41.35 5.9 40.8 5.9 39.8C5.9 39.75 5.9 39.35 5.95 38.65C5.95 37.6 6.25 36.85 6.75 36.45C7.25 36.05 8.1 35.85 9.4 35.8C14.2 35.7 20.55 35.45 28.5 35.1C29.5 35.1 30 34.75 30 34.05V33.8C29.95 33.6 29.95 33.4 29.95 33.2V32.95C29.95 32.85 29.7 32.8 29.2 32.8C28.7 32.8 27.8 32.8 26.5 32.85C25.2 32.9 23.85 32.95 22.4 33.05C20.95 33.15 18.9 33.25 16.3 33.35C13.7 33.5 11.15 33.6 8.75 33.7ZM92.25 0.199998C92.4 3.1 92.5 4.55 92.55 4.65C92.85 7.15 92.75 10.75 92.35 15.45C92.25 16.25 92.15 17.4 91.95 18.85C91.75 20.3 91.65 21.25 91.65 21.75C91.55 22.55 91.1 22.95 90.3 22.95C89.9 22.95 88.8 22.9 86.9 22.9C85 22.9 83.75 22.9 83.2 22.9C82.6 22.9 82.25 22.45 82.1 21.55C82 21.35 81.95 21.1 81.95 20.8C81.9 20.55 81.85 20.3 81.85 20.1C81.85 19.9 81.8 19.65 81.8 19.35C81.8 19.05 81.8 18.8 81.8 18.6C81.8 18.45 81.8 18.2 81.8 17.85C81.8 17.5 81.85 17.25 81.85 17.15C81.85 17.05 81.85 16.75 81.9 16.35C81.9 15.95 81.95 15.75 81.95 15.65C81.95 15.6 82 15.35 82.05 14.9C82.05 14.45 82.1 14.2 82.1 14.15C82.2 13.15 82.25 10.95 82.35 7.55V4.9V2.2C82.35 1.7 82.65 1.3 83.25 1C84.55 0.449998 87.4 0.149999 91.85 0.0499969C91.85 0.0499969 92 0.0999992 92.25 0.199998ZM65.15 25.4C61.4 25.5 58 24.7 54.9 22.9C53 21.85 51.7 20.1 51.1 17.6C50.3 14.6 50.2 12.2 50.8 10.3C51.1 9.3 51.6 8.35 52.25 7.45C53.5 5.75 54.6 4.45 55.55 3.55C56.95 2.25 58.8 1.75 61 2C63.85 2.4 66.9 3.55 70.1 5.45C71.9 6.55 73 8.15 73.4 10.35C73.95 13.85 74 16.7 73.5 18.85C73 21 72.05 22.65 70.6 23.85C69.15 25.05 67.35 25.6 65.15 25.4ZM59.7 14.7C60.3 16.7 60.7 17.85 60.85 18.05C60.95 18.25 61.1 18.5 61.35 18.7C61.6 18.9 61.8 19 62 18.95C63.1 18.85 64.05 18.6 64.8 18.1C65.5 17.6 66 16.95 66.2 16.1C66.4 15.25 66.2 14.25 65.6 13.05C64.7 11.25 63.3 10.65 61.4 11.2C60.3 11.55 59.75 12.7 59.7 14.7ZM82.35 26.3C82.45 26.2 82.65 26.1 82.85 26.05C83.05 26.05 83.25 26.05 83.45 26.15C83.65 26.25 83.85 26.3 84.05 26.4C84.2 26.5 84.4 26.6 84.6 26.7C84.8 26.85 84.95 26.95 85 26.95C85.2 27.1 86.15 27.65 87.75 28.65C88.15 28.9 88.35 29.25 88.35 29.7C88.35 29.9 88.3 30.05 88.25 30.2C88.05 30.6 87.7 31.15 87.1 31.8C86.5 32.5 86.1 33 85.95 33.4C87.35 34.3 88.55 35.15 89.65 35.95C90.05 36.3 90.5 36.75 91.1 37.3C91.7 37.9 92.1 38.35 92.3 38.7C92.35 38.8 92.4 38.85 92.5 38.95C92.6 39.05 92.65 39.15 92.7 39.2C92.75 39.25 92.8 39.3 92.8 39.35C92.8 39.5 92.7 39.7 92.6 39.9C92.45 40.15 92.4 40.3 92.4 40.3C92.25 40.6 92.1 40.85 91.95 41.05C91.35 41.75 90.75 42.35 90.1 42.85C90 42.95 89.85 43.1 89.65 43.4C89.4 43.7 89.2 43.85 89 43.85C88.5 43.85 87.85 43.55 86.95 42.9C85.7 42 84.5 41.05 83.3 40.1C81.4 42.65 80.1 44.4 79.4 45.35C78.8 46.1 78.1 46.45 77.4 46.45C76.9 46.45 76.4 46.3 75.8 45.9C75 45.4 73.95 44.8 72.65 44C72.6 44.1 72.6 44.15 72.6 44.15C72.05 45.35 71.25 45.95 70.25 45.95C69.8 45.95 69.35 45.85 68.95 45.55C68.55 45.3 67.95 44.85 67.15 44.25C66.35 43.65 65.8 43.25 65.4 42.95C64.2 42.2 62.9 41.4 61.5 40.6C61.3 40.5 60.95 40.4 60.5 40.25C60.05 40.8 59.7 41.2 59.5 41.5C59.3 41.75 58.9 42.3 58.3 43.15C57.7 44.05 57.2 44.7 56.85 45.15C56.65 45.45 56.25 45.8 55.7 46.2C55.2 46.6 54.75 46.75 54.25 46.75C53.75 46.75 53.3 46.6 52.9 46.2C52.75 46.15 52.35 46 51.65 45.7C50.95 45.4 50.55 45.2 50.45 45.1C49.95 44.9 49.6 44.65 49.4 44.4C49.05 44 48.9 43.55 48.9 43.05C48.9 42.75 48.95 42.45 49.15 42.1C49.25 41.8 49.4 41.5 49.7 41.1C51.1 39.05 52.25 37.45 53.05 36.25C54.5 34.15 55.6 32.55 56.35 31.5C57.1 30.45 57.85 29.45 58.65 28.55C58.7 28.5 58.8 28.4 58.9 28.25C59 28.15 59.1 28.05 59.15 28C59.15 27.95 59.2 27.85 59.3 27.75C59.4 27.65 59.45 27.6 59.5 27.6C59.5 27.6 59.55 27.55 59.65 27.45C59.75 27.4 59.8 27.35 59.85 27.35C59.85 27.35 59.9 27.35 60 27.3C60.1 27.3 60.15 27.25 60.25 27.25H60.5C60.6 27.25 60.75 27.3 60.95 27.35C61.1 27.45 61.25 27.5 61.4 27.6C61.5 27.7 61.65 27.8 61.85 27.9C62.05 28 62.15 28.1 62.25 28.1C63.3 28.75 64 29.2 64.3 29.5C64.8 30.1 65.1 30.7 65.1 31.35C65.1 31.8 65 32.2 64.8 32.6C64.65 32.9 64.5 33.25 64.35 33.7C64.85 33.95 65.85 34.45 67.4 35.2C67.95 35.5 68.85 36 70.05 36.6C71.25 37.25 72.2 37.7 72.85 38C73.45 37.2 74.35 36 75.65 34.35C77.95 31.4 80.15 28.7 82.35 26.3ZM127.1 34.8C127 35.3 126.85 36.6 126.65 38.65C126.45 40.7 126.35 41.9 126.3 42.2C126.15 42.95 125.7 43.4 125 43.5C124.25 43.65 122.55 43.75 119.85 43.8C119.45 43.8 119.2 43.7 119 43.5C118.8 43.3 118.65 43 118.65 42.6C118.6 41.75 118.6 40.95 118.65 40.2C118.65 39.5 118.65 38.85 118.65 38.25C118.6 37.65 118.55 37.15 118.45 36.7C118.35 36.3 118.2 35.95 117.95 35.65C117.65 35.4 117.3 35.25 116.85 35.15C116.25 35.05 113.8 34.95 109.5 34.8C105.2 34.7 102.6 34.6 101.7 34.6C101.1 34.6 100.65 34.25 100.35 33.5C99.7 32.1 99.65 30.4 100.2 28.35C100.25 28 100.7 27.75 101.55 27.55C101.65 27.5 102.65 27.5 104.55 27.5C106.45 27.5 107.45 27.5 107.55 27.5C108.6 27.45 111.7 27.35 116.8 27.25C121.9 27.15 124.85 27.05 125.75 27C126.75 27 129.55 26.95 134.1 26.9C138.65 26.9 141.2 26.85 141.75 26.85C142.45 26.85 143.05 27.3 143.5 28.3C144.2 29.8 144.35 31.25 143.95 32.65C143.8 33.15 143.4 33.55 142.75 33.8C142 34.1 139.4 34.35 134.95 34.45C130.45 34.55 128.15 34.65 127.95 34.65L127.1 34.8ZM117 3.1C121.05 2.85 123.3 2.7 123.8 2.65C124.65 2.65 125.6 2.95 126.6 3.45C126.8 3.55 127 3.8 127.2 4.1C127.35 4.4 127.45 4.7 127.45 4.9C127.4 7 127.7 8.8 128.3 10.4C128.55 11.2 129.1 11.7 129.9 11.9C132.2 12.45 135.15 13.2 138.65 14.2C139.25 14.4 139.65 14.6 139.9 14.85C140.1 15.15 140.1 15.55 139.85 16.1C139.65 16.5 139.5 17 139.4 17.7C139.25 18.4 139.15 18.85 139.1 19.05C138.8 20.1 138.2 20.85 137.4 21.3C136.55 21.75 135.45 22.05 134.15 22.2C133.95 22.25 133.3 22.35 132.3 22.55C131.3 22.75 130.5 22.8 130 22.8C129.2 22.8 128.45 22.55 127.65 21.95C126.7 21.25 125.85 20.4 125.1 19.4C123.95 18 122.55 17 120.85 16.3C120.15 16 119.4 16.05 118.5 16.4C116.8 17.1 114.7 18.05 112.3 19.25C112.2 19.3 112.05 19.35 111.9 19.4C111.2 19.8 110.65 20.05 110.25 20.2C109.85 20.4 109.3 20.55 108.65 20.7C107.95 20.85 107.35 20.9 106.75 20.85C106 20.8 105.5 20.65 105.25 20.45C104.95 20.25 104.8 19.85 104.7 19.2C104.6 18.6 104.45 18.05 104.25 17.45C103.45 15.25 104.2 13.6 106.55 12.55C112.35 9.95 115.35 8.55 115.6 8.45C116.2 8.2 116.65 7.85 116.85 7.4C117.05 6.95 117.2 6.4 117.25 5.7C117.25 5.6 117.15 4.75 117 3.1ZM189.45 2.4C189.55 3.1 189.65 4.2 189.7 5.7C189.7 7.2 189.7 8.2 189.6 8.8C189.6 9 189.65 9.3 189.75 9.7C189.85 10.1 189.95 10.3 189.95 10.3C190 10.55 190.5 10.85 191.4 11.2C191.6 11.35 192 11.45 192.5 11.55C193 11.65 193.35 11.75 193.55 11.8C194.1 12 194.45 12.25 194.6 12.55C194.7 12.85 194.7 13.3 194.6 13.85C194.15 15.6 193.1 16.65 191.45 17.05C191.15 17.15 190.85 17.15 190.6 17.1C190.3 17.05 190.15 17 190.1 16.9C190 16.85 189.95 16.85 189.85 16.9C189.75 17 189.8 17.2 189.95 17.55C190 18.2 190.1 19.05 190.2 20.05C190.3 21.05 190.3 22.2 190.3 23.4C190.3 24.65 190.15 25.45 189.95 25.8C189.5 26.55 189.15 27 188.85 27.15C187.3 28 185.8 28.1 184.4 27.45C184 27.3 183.75 26.95 183.7 26.45C183.6 25.95 183.65 25.5 183.75 25.05C183.75 24.45 183.65 23.05 183.45 20.75C183.25 18.45 183.15 17.1 183.15 16.6C183.2 9.8 183.35 5.15 183.6 2.55C183.7 1.55 184.25 1 185.3 0.949997C185.9 0.949997 186.55 0.899998 187.2 0.799999C188.1 0.699997 188.65 0.699997 188.85 0.799999C189.05 0.949997 189.15 1.25 189.25 1.65C189.3 2.05 189.35 2.3 189.45 2.4ZM179.45 23.75C179.6 25.05 179.6 25.9 179.4 26.25C179.2 26.65 178.75 26.8 178.05 26.8C175.5 27.1 169.85 27.2 161.05 27C160.1 27 157 27.05 151.75 27.15C150.7 27.2 149.95 26.9 149.45 26.2C148.95 25.55 148.85 24.65 149.05 23.55L149.15 22.75C149.15 22.55 149.15 22.4 149.2 22.3C149.25 22.25 149.45 22.15 149.75 21.95C149.85 21.85 150 21.8 150.1 21.75L159.7 20.6C160.3 18.8 160.95 17.55 161.65 16.9C161.85 16.85 162.15 16.75 162.55 16.65C162.95 16.55 163.5 16.55 164.3 16.55C165.05 16.55 165.6 16.7 165.9 17C166.05 17.25 166.2 17.75 166.4 18.45C166.6 19.15 166.75 19.6 166.9 19.8C167.1 20.2 167.95 20.45 169.35 20.6C170.75 20.75 172.25 20.85 173.85 20.9C175.4 20.95 176.35 21 176.65 21.05C177.35 21.3 177.7 21.4 177.8 21.4C178.5 21.7 178.95 21.95 179.15 22.25C179.35 22.55 179.45 23.05 179.45 23.75ZM150.95 1.15C159 0.949997 164.15 0.799999 166.4 0.799999C167.9 0.799999 170.1 1.05 173 1.45C173.5 1.55 173.9 1.95 174.3 2.65C175.1 4.1 175.5 5.9 175.5 8C175.5 8.5 175.45 9.1 175.45 9.75C175.4 10.45 175.4 11 175.4 11.45C175.4 11.95 175.45 12.5 175.55 13.2C175.55 13.35 175.6 13.6 175.7 13.95C175.75 14.35 175.8 14.6 175.8 14.7C175.8 14.85 175.75 15.05 175.7 15.3C175.6 15.55 175.5 15.7 175.3 15.8C175.1 15.9 174.85 16 174.5 16.1C174.1 16.2 173.65 16.2 173.1 16.2C172.5 16.2 172 16.2 171.65 16.15C171.3 16.15 171 16.1 170.8 16.05C170.6 16.05 170.45 15.95 170.35 15.8C170.25 15.65 170.2 15.5 170.2 15.4C170.2 15.3 170.2 15.15 170.2 14.85C170.2 14.55 170.15 14.3 170.15 14.1C170.05 13.55 170 12.8 170.1 11.8C170.2 10.85 170.2 10.1 170.15 9.5C170.1 9.1 170 8.8 169.8 8.6C169.6 8.4 169.2 8.3 168.7 8.3C166.3 8.4 165.05 8.7 165 9.2C164.8 12.2 164.7 13.9 164.75 14.3C164.85 15.05 164.4 15.55 163.5 15.85C162.6 16.15 161.65 16.2 160.75 16.1L159.3 15.95L158.55 15.35C158.75 12.35 158.9 10.15 158.95 8.8C158.95 8.5 158.9 8.3 158.9 8.2C158.9 8.1 158.8 8 158.7 7.9C158.6 7.85 158.45 7.8 158.35 7.8C158.2 7.8 157.95 7.8 157.6 7.75C157.2 7.75 156.85 7.65 156.5 7.55C156.45 7.55 155.9 7.6 154.85 7.6C154.4 7.65 153.95 7.7 153.5 7.75C153 7.8 152.65 7.85 152.45 7.85C152.2 7.85 151.95 7.85 151.7 7.85C151.4 7.85 151.2 7.8 151.1 7.7C151 7.6 150.85 7.4 150.75 7.2C150.65 7 150.55 6.7 150.5 6.3C150.1 4.05 150.25 2.35 150.95 1.15ZM177.85 39.75C178.65 39.75 179.35 39.45 179.95 38.75C180.55 38.1 180.85 37.3 180.85 36.3C180.85 34.9 180.05 34.05 178.55 33.7C176.9 33.4 173.65 33.2 168.8 33.2H168.75C168.25 33.2 167.85 33.3 167.5 33.45C167.15 33.65 166.85 33.9 166.65 34.25C166.45 34.6 166.3 34.9 166.2 35.15C166.1 35.45 166 35.8 165.9 36.3C165.8 36.55 165.8 36.75 165.8 36.95C165.8 37.5 165.95 37.95 166.35 38.25C166.75 38.6 167.2 38.8 167.8 38.9C168.35 39.05 169.1 39.15 170.1 39.25C171.05 39.35 171.9 39.45 172.65 39.45C173.35 39.5 174.3 39.55 175.45 39.6C176.6 39.7 177.35 39.75 177.7 39.75H177.85ZM170.5 28.1C172.4 28.1 174.7 28.3 177.3 28.6C179.9 28.9 182.1 29.3 183.9 29.8C186.95 30.7 188.65 32.3 189 34.6C189.1 35.2 189.15 35.75 189.15 36.25C189.15 38.5 188.25 40.3 186.5 41.6C185.3 42.5 184.3 43.25 183.5 43.75C182.7 44.25 181.75 44.75 180.55 45.2C179.35 45.7 178.15 45.95 176.95 45.95C176.45 45.95 175.25 46.05 173.3 46.15C171.35 46.25 170.05 46.3 169.4 46.3C168.45 46.3 167.6 46.25 166.9 46.1C166.7 46.1 166.5 46.1 166.2 46C164.8 45.8 163.7 45.6 163 45.45C162.25 45.3 161.35 45 160.3 44.5C159.25 44.05 158.35 43.45 157.65 42.7C156.3 41.4 155.65 40.2 155.65 39.05C155.65 36.75 155.95 35 156.65 33.85C158.5 30.75 162.35 28.85 168.15 28.25C168.9 28.15 169.7 28.1 170.5 28.1ZM236.55 17.85C236.7 22.65 234.7 26.45 230.5 29.25C230.1 29.5 229.9 29.9 229.8 30.5C229.7 30.95 229.65 31.65 229.55 32.6C229.45 33.6 229.35 34.3 229.25 34.75C229.05 36 228.2 36.65 226.8 36.75C224.7 36.85 223.15 36.95 222.15 36.95C220.85 37 220.1 36.9 219.9 36.7C219.7 36.5 219.65 35.7 219.75 34.4C219.75 33.95 219.75 33.3 219.7 32.4C219.65 31.5 219.65 30.85 219.7 30.4C219.7 28.9 219.85 27.45 220.1 25.95C220.15 25.6 220.4 25.25 220.9 24.85C222.7 23.4 223.9 22.5 224.5 22.1C225.4 21.6 226.05 20.7 226.45 19.45C226.85 18.2 226.9 17.1 226.7 16.2C226.3 14.75 225.55 13.65 224.55 12.95C223.5 12.25 222.45 11.9 221.35 11.95C220.75 12 220.2 12 219.7 11.95C219.2 11.95 218.65 11.95 218.05 12.05C217.45 12.15 216.95 12.35 216.5 12.65C215.55 13.2 215.15 13.9 215.35 14.75C215.35 14.85 215.45 15.2 215.55 15.75C215.65 16.3 215.75 16.7 215.85 16.95C216 17.75 215.75 18.15 215.05 18.25C214.85 18.3 214.1 18.45 212.85 18.65C211.55 18.9 210.6 19.05 209.95 19.1C209.5 19.15 209.1 19.05 208.8 18.75C208.5 18.5 208.3 18.15 208.2 17.7C207.9 16.25 207.65 15.1 207.55 14.25C207.45 13.4 207.4 12.35 207.45 11.05C207.45 9.8 207.65 8.65 208.05 7.6C208.85 5.25 210.45 3.45 212.8 2.25C215.65 0.799999 218.35 0.0999992 220.85 0.199998C223 0.3 224.65 0.349999 225.85 0.449998C226.45 0.499997 226.95 0.649998 227.4 0.849998C227.5 0.949997 227.9 1.2 228.5 1.5C229.1 1.8 229.5 2.05 229.7 2.15C229.9 2.3 230.25 2.55 230.75 2.85C231.25 3.15 231.6 3.45 231.85 3.65C232.1 3.9 232.4 4.2 232.7 4.55C233 4.9 233.3 5.25 233.5 5.65C234.5 7.55 235.3 9.65 235.9 11.95C236 12.55 236.1 13.15 236.2 13.8C236.25 14.45 236.3 15.2 236.35 16C236.4 16.85 236.45 17.45 236.55 17.85ZM219.95 41.45C219.95 40.55 220 40.05 220.2 39.85C220.35 39.7 220.9 39.6 221.85 39.5C222.15 39.5 222.6 39.45 223.3 39.35C223.95 39.25 224.45 39.2 224.8 39.15C225.7 39.15 226.5 39.2 227.25 39.3C227.4 39.35 227.6 39.45 227.8 39.65C228 39.85 228.1 40 228.1 40.1C228.2 41.65 228.2 42.95 228.1 44.05C228.1 44.3 227.95 44.55 227.75 44.8C227.5 45.05 227.3 45.2 227.1 45.2C225.2 45.55 223.45 45.75 221.95 45.8C221.4 45.85 220.95 45.7 220.65 45.4C220.3 45.1 220.15 44.65 220.15 44.05C220.15 43.95 220.05 43.1 219.95 41.45Z" fill="black"/>
</svg>
