<svg width="95" height="20" viewBox="0 0 95 20" fill="none" xmlns="http://www.w3.org/2000/svg">
<path d="M17.1098 0.879999C17.1698 2.04 17.2098 2.62 17.2298 2.66C17.3498 3.66 17.3098 5.1 17.1498 6.98C17.1098 7.3 17.0698 7.76 16.9898 8.34C16.9098 8.92 16.8698 9.3 16.8698 9.5C16.8298 9.82 16.6498 9.98 16.3298 9.98C16.1698 9.98 15.7298 9.96 14.9698 9.96C14.2098 9.96 13.7098 9.96 13.4898 9.96C13.2498 9.96 13.1098 9.78 13.0498 9.42C13.0098 9.34 12.9898 9.24 12.9898 9.12C12.9698 9.02 12.9498 8.92 12.9498 8.84C12.9498 8.76 12.9298 8.66 12.9298 8.54C12.9298 8.42 12.9298 8.32 12.9298 8.24C12.9298 8.18 12.9298 8.08 12.9298 7.94C12.9298 7.8 12.9498 7.7 12.9498 7.66C12.9498 7.62 12.9498 7.5 12.9698 7.34C12.9698 7.18 12.9898 7.1 12.9898 7.06C12.9898 7.04 13.0098 6.94 13.0298 6.76C13.0298 6.58 13.0498 6.48 13.0498 6.46C13.0898 6.06 13.1098 5.18 13.1498 3.82V2.76V1.68C13.1498 1.48 13.2698 1.32 13.5098 1.2C14.0298 0.979999 15.1698 0.859999 16.9498 0.819999C16.9498 0.819999 17.0098 0.84 17.1098 0.879999ZM6.26977 10.96C4.76977 11 3.40977 10.68 2.16977 9.96C1.40977 9.54 0.889766 8.84 0.649766 7.84C0.329766 6.64 0.289766 5.68 0.529766 4.92C0.649766 4.52 0.849766 4.14 1.10977 3.78C1.60977 3.1 2.04977 2.58 2.42977 2.22C2.98977 1.7 3.72977 1.5 4.60977 1.6C5.74977 1.76 6.96977 2.22 8.24977 2.98C8.96977 3.42 9.40977 4.06 9.56977 4.94C9.78977 6.34 9.80977 7.48 9.60977 8.34C9.40977 9.2 9.02977 9.86 8.44977 10.34C7.86977 10.82 7.14977 11.04 6.26977 10.96ZM4.08977 6.68C4.32977 7.48 4.48977 7.94 4.54977 8.02C4.58977 8.1 4.64977 8.2 4.74977 8.28C4.84977 8.36 4.92977 8.4 5.00977 8.38C5.44977 8.34 5.82977 8.24 6.12977 8.04C6.40977 7.84 6.60977 7.58 6.68977 7.24C6.76977 6.9 6.68977 6.5 6.44977 6.02C6.08977 5.3 5.52977 5.06 4.76977 5.28C4.32977 5.42 4.10977 5.88 4.08977 6.68ZM3.70977 14.28C3.66977 14.28 3.56977 14.3 3.40977 14.3C3.24977 14.32 3.12977 14.32 3.06977 14.32C2.98977 14.32 2.90977 14.32 2.78977 14.3C2.66977 14.28 2.56977 14.24 2.52977 14.2C2.46977 14.16 2.40977 14.08 2.34977 13.98C2.28977 13.88 2.24977 13.76 2.24977 13.6C2.22977 13.52 2.20977 13.36 2.16977 13.14C2.12977 12.94 2.10977 12.76 2.10977 12.6C2.10977 12.4 2.12977 12.18 2.18977 11.98C2.18977 11.9 2.24977 11.8 2.36977 11.7C2.48977 11.62 2.60977 11.56 2.74977 11.56C8.14977 11.54 11.9098 11.6 14.0698 11.74C14.5098 11.78 14.8498 11.82 15.1098 11.9C15.4098 12.02 15.5898 12.16 15.6498 12.34C15.7098 12.62 15.7498 12.9 15.7498 13.18C15.7498 13.52 15.6898 13.92 15.6098 14.38C15.4498 15.16 15.0498 15.72 14.3898 16.04C14.0298 16.22 13.3698 16.36 12.4298 16.44C12.0898 16.48 11.6098 16.5 10.9698 16.5C10.3298 16.52 9.88977 16.54 9.62977 16.56C9.58977 16.56 8.86977 16.58 7.48977 16.6C6.08977 16.62 5.32977 16.64 5.18977 16.68L5.20977 17.22C5.44977 17.22 6.34977 17.22 7.90977 17.18C9.46977 17.16 10.3898 17.14 10.6298 17.14C11.1698 17.14 11.6498 17.14 12.0698 17.12C12.3498 17.12 12.7898 17.1 13.3698 17.06C13.9298 17.02 14.3498 17 14.6298 16.98H14.6698C15.0298 16.98 15.2298 17.12 15.2298 17.4V17.5C15.1098 18.12 15.0098 18.6 14.9298 18.92C14.8298 19.24 14.6698 19.46 14.4498 19.58C14.2298 19.7 13.8698 19.76 13.3498 19.76H13.1098C12.5898 19.76 11.8498 19.72 10.9098 19.66C9.96977 19.6 9.30977 19.56 8.92977 19.52C8.32977 19.5 7.80977 19.5 7.34977 19.52C6.88977 19.56 6.36977 19.56 5.80977 19.52C5.24977 19.5 4.74977 19.44 4.30977 19.34C3.70977 19.22 3.28977 19.02 3.04977 18.7C2.80977 18.38 2.66977 17.96 2.58977 17.42C2.56977 17.34 2.56977 17.12 2.56977 16.72C2.56977 16.7 2.56977 16.54 2.58977 16.26C2.58977 15.84 2.70977 15.54 2.90977 15.38C3.10977 15.22 3.44977 15.14 3.96977 15.12C5.88977 15.08 8.42977 14.98 11.6098 14.84C12.0098 14.84 12.2098 14.7 12.2098 14.42V14.32C12.1898 14.24 12.1898 14.16 12.1898 14.08V13.98C12.1898 13.94 12.0898 13.92 11.8898 13.92C11.6898 13.92 11.3298 13.92 10.8098 13.94C10.2898 13.96 9.74977 13.98 9.16977 14.02C8.58977 14.06 7.76977 14.1 6.72977 14.14C5.68977 14.2 4.66977 14.24 3.70977 14.28ZM37.1098 0.879999C37.1698 2.04 37.2098 2.62 37.2298 2.66C37.3498 3.66 37.3098 5.1 37.1498 6.98C37.1098 7.3 37.0698 7.76 36.9898 8.34C36.9098 8.92 36.8698 9.3 36.8698 9.5C36.8298 9.82 36.6498 9.98 36.3298 9.98C36.1698 9.98 35.7298 9.96 34.9698 9.96C34.2098 9.96 33.7098 9.96 33.4898 9.96C33.2498 9.96 33.1098 9.78 33.0498 9.42C33.0098 9.34 32.9898 9.24 32.9898 9.12C32.9698 9.02 32.9498 8.92 32.9498 8.84C32.9498 8.76 32.9298 8.66 32.9298 8.54C32.9298 8.42 32.9298 8.32 32.9298 8.24C32.9298 8.18 32.9298 8.08 32.9298 7.94C32.9298 7.8 32.9498 7.7 32.9498 7.66C32.9498 7.62 32.9498 7.5 32.9698 7.34C32.9698 7.18 32.9898 7.1 32.9898 7.06C32.9898 7.04 33.0098 6.94 33.0298 6.76C33.0298 6.58 33.0498 6.48 33.0498 6.46C33.0898 6.06 33.1098 5.18 33.1498 3.82V2.76V1.68C33.1498 1.48 33.2698 1.32 33.5098 1.2C34.0298 0.979999 35.1698 0.859999 36.9498 0.819999C36.9498 0.819999 37.0098 0.84 37.1098 0.879999ZM26.2698 10.96C24.7698 11 23.4098 10.68 22.1698 9.96C21.4098 9.54 20.8898 8.84 20.6498 7.84C20.3298 6.64 20.2898 5.68 20.5298 4.92C20.6498 4.52 20.8498 4.14 21.1098 3.78C21.6098 3.1 22.0498 2.58 22.4298 2.22C22.9898 1.7 23.7298 1.5 24.6098 1.6C25.7498 1.76 26.9698 2.22 28.2498 2.98C28.9698 3.42 29.4098 4.06 29.5698 4.94C29.7898 6.34 29.8098 7.48 29.6098 8.34C29.4098 9.2 29.0298 9.86 28.4498 10.34C27.8698 10.82 27.1498 11.04 26.2698 10.96ZM24.0898 6.68C24.3298 7.48 24.4898 7.94 24.5498 8.02C24.5898 8.1 24.6498 8.2 24.7498 8.28C24.8498 8.36 24.9298 8.4 25.0098 8.38C25.4498 8.34 25.8298 8.24 26.1298 8.04C26.4098 7.84 26.6098 7.58 26.6898 7.24C26.7698 6.9 26.6898 6.5 26.4498 6.02C26.0898 5.3 25.5298 5.06 24.7698 5.28C24.3298 5.42 24.1098 5.88 24.0898 6.68ZM33.1498 11.32C33.1898 11.28 33.2698 11.24 33.3498 11.22C33.4298 11.22 33.5098 11.22 33.5898 11.26C33.6698 11.3 33.7498 11.32 33.8298 11.36C33.8898 11.4 33.9698 11.44 34.0498 11.48C34.1298 11.54 34.1898 11.58 34.2098 11.58C34.2898 11.64 34.6698 11.86 35.3098 12.26C35.4698 12.36 35.5498 12.5 35.5498 12.68C35.5498 12.76 35.5298 12.82 35.5098 12.88C35.4298 13.04 35.2898 13.26 35.0498 13.52C34.8098 13.8 34.6498 14 34.5898 14.16C35.1498 14.52 35.6298 14.86 36.0698 15.18C36.2298 15.32 36.4098 15.5 36.6498 15.72C36.8898 15.96 37.0498 16.14 37.1298 16.28C37.1498 16.32 37.1698 16.34 37.2098 16.38C37.2498 16.42 37.2698 16.46 37.2898 16.48C37.3098 16.5 37.3298 16.52 37.3298 16.54C37.3298 16.6 37.2898 16.68 37.2498 16.76C37.1898 16.86 37.1698 16.92 37.1698 16.92C37.1098 17.04 37.0498 17.14 36.9898 17.22C36.7498 17.5 36.5098 17.74 36.2498 17.94C36.2098 17.98 36.1498 18.04 36.0698 18.16C35.9698 18.28 35.8898 18.34 35.8098 18.34C35.6098 18.34 35.3498 18.22 34.9898 17.96C34.4898 17.6 34.0098 17.22 33.5298 16.84C32.7698 17.86 32.2498 18.56 31.9698 18.94C31.7298 19.24 31.4498 19.38 31.1698 19.38C30.9698 19.38 30.7698 19.32 30.5298 19.16C30.2098 18.96 29.7898 18.72 29.2698 18.4C29.2498 18.44 29.2498 18.46 29.2498 18.46C29.0298 18.94 28.7098 19.18 28.3098 19.18C28.1298 19.18 27.9498 19.14 27.7898 19.02C27.6298 18.92 27.3898 18.74 27.0698 18.5C26.7498 18.26 26.5298 18.1 26.3698 17.98C25.8898 17.68 25.3698 17.36 24.8098 17.04C24.7298 17 24.5898 16.96 24.4098 16.9C24.2298 17.12 24.0898 17.28 24.0098 17.4C23.9298 17.5 23.7698 17.72 23.5298 18.06C23.2898 18.42 23.0898 18.68 22.9498 18.86C22.8698 18.98 22.7098 19.12 22.4898 19.28C22.2898 19.44 22.1098 19.5 21.9098 19.5C21.7098 19.5 21.5298 19.44 21.3698 19.28C21.3098 19.26 21.1498 19.2 20.8698 19.08C20.5898 18.96 20.4298 18.88 20.3898 18.84C20.1898 18.76 20.0498 18.66 19.9698 18.56C19.8298 18.4 19.7698 18.22 19.7698 18.02C19.7698 17.9 19.7898 17.78 19.8698 17.64C19.9098 17.52 19.9698 17.4 20.0898 17.24C20.6498 16.42 21.1098 15.78 21.4298 15.3C22.0098 14.46 22.4498 13.82 22.7498 13.4C23.0498 12.98 23.3498 12.58 23.6698 12.22C23.6898 12.2 23.7298 12.16 23.7698 12.1C23.8098 12.06 23.8498 12.02 23.8698 12C23.8698 11.98 23.8898 11.94 23.9298 11.9C23.9698 11.86 23.9898 11.84 24.0098 11.84C24.0098 11.84 24.0298 11.82 24.0698 11.78C24.1098 11.76 24.1298 11.74 24.1498 11.74C24.1498 11.74 24.1698 11.74 24.2098 11.72C24.2498 11.72 24.2698 11.7 24.3098 11.7H24.4098C24.4498 11.7 24.5098 11.72 24.5898 11.74C24.6498 11.78 24.7098 11.8 24.7698 11.84C24.8098 11.88 24.8698 11.92 24.9498 11.96C25.0298 12 25.0698 12.04 25.1098 12.04C25.5298 12.3 25.8098 12.48 25.9298 12.6C26.1298 12.84 26.2498 13.08 26.2498 13.34C26.2498 13.52 26.2098 13.68 26.1298 13.84C26.0698 13.96 26.0098 14.1 25.9498 14.28C26.1498 14.38 26.5498 14.58 27.1698 14.88C27.3898 15 27.7498 15.2 28.2298 15.44C28.7098 15.7 29.0898 15.88 29.3498 16C29.5898 15.68 29.9498 15.2 30.4698 14.54C31.3898 13.36 32.2698 12.28 33.1498 11.32ZM51.0498 14.72C51.0098 14.92 50.9498 15.44 50.8698 16.26C50.7898 17.08 50.7498 17.56 50.7298 17.68C50.6698 17.98 50.4898 18.16 50.2098 18.2C49.9098 18.26 49.2298 18.3 48.1498 18.32C47.9898 18.32 47.8898 18.28 47.8098 18.2C47.7298 18.12 47.6698 18 47.6698 17.84C47.6498 17.5 47.6498 17.18 47.6698 16.88C47.6698 16.6 47.6698 16.34 47.6698 16.1C47.6498 15.86 47.6298 15.66 47.5898 15.48C47.5498 15.32 47.4898 15.18 47.3898 15.06C47.2698 14.96 47.1298 14.9 46.9498 14.86C46.7098 14.82 45.7298 14.78 44.0098 14.72C42.2898 14.68 41.2498 14.64 40.8898 14.64C40.6498 14.64 40.4698 14.5 40.3498 14.2C40.0898 13.64 40.0698 12.96 40.2898 12.14C40.3098 12 40.4898 11.9 40.8298 11.82C40.8698 11.8 41.2698 11.8 42.0298 11.8C42.7898 11.8 43.1898 11.8 43.2298 11.8C43.6498 11.78 44.8898 11.74 46.9298 11.7C48.9698 11.66 50.1498 11.62 50.5098 11.6C50.9098 11.6 52.0298 11.58 53.8498 11.56C55.6698 11.56 56.6898 11.54 56.9098 11.54C57.1898 11.54 57.4298 11.72 57.6098 12.12C57.8898 12.72 57.9498 13.3 57.7898 13.86C57.7298 14.06 57.5698 14.22 57.3098 14.32C57.0098 14.44 55.9698 14.54 54.1898 14.58C52.3898 14.62 51.4698 14.66 51.3898 14.66L51.0498 14.72ZM47.0098 2.04C48.6298 1.94 49.5298 1.88 49.7298 1.86C50.0698 1.86 50.4498 1.98 50.8498 2.18C50.9298 2.22 51.0098 2.32 51.0898 2.44C51.1498 2.56 51.1898 2.68 51.1898 2.76C51.1698 3.6 51.2898 4.32 51.5298 4.96C51.6298 5.28 51.8498 5.48 52.1698 5.56C53.0898 5.78 54.2698 6.08 55.6698 6.48C55.9098 6.56 56.0698 6.64 56.1698 6.74C56.2498 6.86 56.2498 7.02 56.1498 7.24C56.0698 7.4 56.0098 7.6 55.9698 7.88C55.9098 8.16 55.8698 8.34 55.8498 8.42C55.7298 8.84 55.4898 9.14 55.1698 9.32C54.8298 9.5 54.3898 9.62 53.8698 9.68C53.7898 9.7 53.5298 9.74 53.1298 9.82C52.7298 9.9 52.4098 9.92 52.2098 9.92C51.8898 9.92 51.5898 9.82 51.2698 9.58C50.8898 9.3 50.5498 8.96 50.2498 8.56C49.7898 8 49.2298 7.6 48.5498 7.32C48.2698 7.2 47.9698 7.22 47.6098 7.36C46.9298 7.64 46.0898 8.02 45.1298 8.5C45.0898 8.52 45.0298 8.54 44.9698 8.56C44.6898 8.72 44.4698 8.82 44.3098 8.88C44.1498 8.96 43.9298 9.02 43.6698 9.08C43.3898 9.14 43.1498 9.16 42.9098 9.14C42.6098 9.12 42.4098 9.06 42.3098 8.98C42.1898 8.9 42.1298 8.74 42.0898 8.48C42.0498 8.24 41.9898 8.02 41.9098 7.78C41.5898 6.9 41.8898 6.24 42.8298 5.82C45.1498 4.78 46.3498 4.22 46.4498 4.18C46.6898 4.08 46.8698 3.94 46.9498 3.76C47.0298 3.58 47.0898 3.36 47.1098 3.08C47.1098 3.04 47.0698 2.7 47.0098 2.04ZM75.9898 1.76C76.0298 2.04 76.0698 2.48 76.0898 3.08C76.0898 3.68 76.0898 4.08 76.0498 4.32C76.0498 4.4 76.0698 4.52 76.1098 4.68C76.1498 4.84 76.1898 4.92 76.1898 4.92C76.2098 5.02 76.4098 5.14 76.7698 5.28C76.8498 5.34 77.0098 5.38 77.2098 5.42C77.4098 5.46 77.5498 5.5 77.6298 5.52C77.8498 5.6 77.9898 5.7 78.0498 5.82C78.0898 5.94 78.0898 6.12 78.0498 6.34C77.8698 7.04 77.4498 7.46 76.7898 7.62C76.6698 7.66 76.5498 7.66 76.4498 7.64C76.3298 7.62 76.2698 7.6 76.2498 7.56C76.2098 7.54 76.1898 7.54 76.1498 7.56C76.1098 7.6 76.1298 7.68 76.1898 7.82C76.2098 8.08 76.2498 8.42 76.2898 8.82C76.3298 9.22 76.3298 9.68 76.3298 10.16C76.3298 10.66 76.2698 10.98 76.1898 11.12C76.0098 11.42 75.8698 11.6 75.7498 11.66C75.1298 12 74.5298 12.04 73.9698 11.78C73.8098 11.72 73.7098 11.58 73.6898 11.38C73.6498 11.18 73.6698 11 73.7098 10.82C73.7098 10.58 73.6698 10.02 73.5898 9.1C73.5098 8.18 73.4698 7.64 73.4698 7.44C73.4898 4.72 73.5498 2.86 73.6498 1.82C73.6898 1.42 73.9098 1.2 74.3298 1.18C74.5698 1.18 74.8298 1.16 75.0898 1.12C75.4498 1.08 75.6698 1.08 75.7498 1.12C75.8298 1.18 75.8698 1.3 75.9098 1.46C75.9298 1.62 75.9498 1.72 75.9898 1.76ZM71.9898 10.3C72.0498 10.82 72.0498 11.16 71.9698 11.3C71.8898 11.46 71.7098 11.52 71.4298 11.52C70.4098 11.64 68.1498 11.68 64.6298 11.6C64.2498 11.6 63.0098 11.62 60.9098 11.66C60.4898 11.68 60.1898 11.56 59.9898 11.28C59.7898 11.02 59.7498 10.66 59.8298 10.22L59.8698 9.9C59.8698 9.82 59.8698 9.76 59.8898 9.72C59.9098 9.7 59.9898 9.66 60.1098 9.58C60.1498 9.54 60.2098 9.52 60.2498 9.5L64.0898 9.04C64.3298 8.32 64.5898 7.82 64.8698 7.56C64.9498 7.54 65.0698 7.5 65.2298 7.46C65.3898 7.42 65.6098 7.42 65.9298 7.42C66.2298 7.42 66.4498 7.48 66.5698 7.6C66.6298 7.7 66.6898 7.9 66.7698 8.18C66.8498 8.46 66.9098 8.64 66.9698 8.72C67.0498 8.88 67.3898 8.98 67.9498 9.04C68.5098 9.1 69.1098 9.14 69.7498 9.16C70.3698 9.18 70.7498 9.2 70.8698 9.22C71.1498 9.32 71.2898 9.36 71.3298 9.36C71.6098 9.48 71.7898 9.58 71.8698 9.7C71.9498 9.82 71.9898 10.02 71.9898 10.3ZM60.5898 1.26C63.8098 1.18 65.8698 1.12 66.7698 1.12C67.3698 1.12 68.2498 1.22 69.4098 1.38C69.6098 1.42 69.7698 1.58 69.9298 1.86C70.2498 2.44 70.4098 3.16 70.4098 4C70.4098 4.2 70.3898 4.44 70.3898 4.7C70.3698 4.98 70.3698 5.2 70.3698 5.38C70.3698 5.58 70.3898 5.8 70.4298 6.08C70.4298 6.14 70.4498 6.24 70.4898 6.38C70.5098 6.54 70.5298 6.64 70.5298 6.68C70.5298 6.74 70.5098 6.82 70.4898 6.92C70.4498 7.02 70.4098 7.08 70.3298 7.12C70.2498 7.16 70.1498 7.2 70.0098 7.24C69.8498 7.28 69.6698 7.28 69.4498 7.28C69.2098 7.28 69.0098 7.28 68.8698 7.26C68.7298 7.26 68.6098 7.24 68.5298 7.22C68.4498 7.22 68.3898 7.18 68.3498 7.12C68.3098 7.06 68.2898 7 68.2898 6.96C68.2898 6.92 68.2898 6.86 68.2898 6.74C68.2898 6.62 68.2698 6.52 68.2698 6.44C68.2298 6.22 68.2098 5.92 68.2498 5.52C68.2898 5.14 68.2898 4.84 68.2698 4.6C68.2498 4.44 68.2098 4.32 68.1298 4.24C68.0498 4.16 67.8898 4.12 67.6898 4.12C66.7298 4.16 66.2298 4.28 66.2098 4.48C66.1298 5.68 66.0898 6.36 66.1098 6.52C66.1498 6.82 65.9698 7.02 65.6098 7.14C65.2498 7.26 64.8698 7.28 64.5098 7.24L63.9298 7.18L63.6298 6.94C63.7098 5.74 63.7698 4.86 63.7898 4.32C63.7898 4.2 63.7698 4.12 63.7698 4.08C63.7698 4.04 63.7298 4 63.6898 3.96C63.6498 3.94 63.5898 3.92 63.5498 3.92C63.4898 3.92 63.3898 3.92 63.2498 3.9C63.0898 3.9 62.9498 3.86 62.8098 3.82C62.7898 3.82 62.5698 3.84 62.1498 3.84C61.9698 3.86 61.7898 3.88 61.6098 3.9C61.4098 3.92 61.2698 3.94 61.1898 3.94C61.0898 3.94 60.9898 3.94 60.8898 3.94C60.7698 3.94 60.6898 3.92 60.6498 3.88C60.6098 3.84 60.5498 3.76 60.5098 3.68C60.4698 3.6 60.4298 3.48 60.4098 3.32C60.2498 2.42 60.3098 1.74 60.5898 1.26ZM71.3498 16.7C71.6698 16.7 71.9498 16.58 72.1898 16.3C72.4298 16.04 72.5498 15.72 72.5498 15.32C72.5498 14.76 72.2298 14.42 71.6298 14.28C70.9698 14.16 69.6698 14.08 67.7298 14.08H67.7098C67.5098 14.08 67.3498 14.12 67.2098 14.18C67.0698 14.26 66.9498 14.36 66.8698 14.5C66.7898 14.64 66.7298 14.76 66.6898 14.86C66.6498 14.98 66.6098 15.12 66.5698 15.32C66.5298 15.42 66.5298 15.5 66.5298 15.58C66.5298 15.8 66.5898 15.98 66.7498 16.1C66.9098 16.24 67.0898 16.32 67.3298 16.36C67.5498 16.42 67.8498 16.46 68.2498 16.5C68.6298 16.54 68.9698 16.58 69.2698 16.58C69.5498 16.6 69.9298 16.62 70.3898 16.64C70.8498 16.68 71.1498 16.7 71.2898 16.7H71.3498ZM68.4098 12.04C69.1698 12.04 70.0898 12.12 71.1298 12.24C72.1698 12.36 73.0498 12.52 73.7698 12.72C74.9898 13.08 75.6698 13.72 75.8098 14.64C75.8498 14.88 75.8698 15.1 75.8698 15.3C75.8698 16.2 75.5098 16.92 74.8098 17.44C74.3298 17.8 73.9298 18.1 73.6098 18.3C73.2898 18.5 72.9098 18.7 72.4298 18.88C71.9498 19.08 71.4698 19.18 70.9898 19.18C70.7898 19.18 70.3098 19.22 69.5298 19.26C68.7498 19.3 68.2298 19.32 67.9698 19.32C67.5898 19.32 67.2498 19.3 66.9698 19.24C66.8898 19.24 66.8098 19.24 66.6898 19.2C66.1298 19.12 65.6898 19.04 65.4098 18.98C65.1098 18.92 64.7498 18.8 64.3298 18.6C63.9098 18.42 63.5498 18.18 63.2698 17.88C62.7298 17.36 62.4698 16.88 62.4698 16.42C62.4698 15.5 62.5898 14.8 62.8698 14.34C63.6098 13.1 65.1498 12.34 67.4698 12.1C67.7698 12.06 68.0898 12.04 68.4098 12.04ZM94.8298 7.94C94.8898 9.86 94.0898 11.38 92.4098 12.5C92.2498 12.6 92.1698 12.76 92.1298 13C92.0898 13.18 92.0698 13.46 92.0298 13.84C91.9898 14.24 91.9498 14.52 91.9098 14.7C91.8298 15.2 91.4898 15.46 90.9298 15.5C90.0898 15.54 89.4698 15.58 89.0698 15.58C88.5498 15.6 88.2498 15.56 88.1698 15.48C88.0898 15.4 88.0698 15.08 88.1098 14.56C88.1098 14.38 88.1098 14.12 88.0898 13.76C88.0698 13.4 88.0698 13.14 88.0898 12.96C88.0898 12.36 88.1498 11.78 88.2498 11.18C88.2698 11.04 88.3698 10.9 88.5698 10.74C89.2898 10.16 89.7698 9.8 90.0098 9.64C90.3698 9.44 90.6298 9.08 90.7898 8.58C90.9498 8.08 90.9698 7.64 90.8898 7.28C90.7298 6.7 90.4298 6.26 90.0298 5.98C89.6098 5.7 89.1898 5.56 88.7498 5.58C88.5098 5.6 88.2898 5.6 88.0898 5.58C87.8898 5.58 87.6698 5.58 87.4298 5.62C87.1898 5.66 86.9898 5.74 86.8098 5.86C86.4298 6.08 86.2698 6.36 86.3498 6.7C86.3498 6.74 86.3898 6.88 86.4298 7.1C86.4698 7.32 86.5098 7.48 86.5498 7.58C86.6098 7.9 86.5098 8.06 86.2298 8.1C86.1498 8.12 85.8498 8.18 85.3498 8.26C84.8298 8.36 84.4498 8.42 84.1898 8.44C84.0098 8.46 83.8498 8.42 83.7298 8.3C83.6098 8.2 83.5298 8.06 83.4898 7.88C83.3698 7.3 83.2698 6.84 83.2298 6.5C83.1898 6.16 83.1698 5.74 83.1898 5.22C83.1898 4.72 83.2698 4.26 83.4298 3.84C83.7498 2.9 84.3898 2.18 85.3298 1.7C86.4698 1.12 87.5498 0.84 88.5498 0.879999C89.4098 0.92 90.0698 0.94 90.5498 0.979999C90.7898 0.999999 90.9898 1.06 91.1698 1.14C91.2098 1.18 91.3698 1.28 91.6098 1.4C91.8498 1.52 92.0098 1.62 92.0898 1.66C92.1698 1.72 92.3098 1.82 92.5098 1.94C92.7098 2.06 92.8498 2.18 92.9498 2.26C93.0498 2.36 93.1698 2.48 93.2898 2.62C93.4098 2.76 93.5298 2.9 93.6098 3.06C94.0098 3.82 94.3298 4.66 94.5698 5.58C94.6098 5.82 94.6498 6.06 94.6898 6.32C94.7098 6.58 94.7298 6.88 94.7498 7.2C94.7698 7.54 94.7898 7.78 94.8298 7.94ZM88.1898 17.38C88.1898 17.02 88.2098 16.82 88.2898 16.74C88.3498 16.68 88.5698 16.64 88.9498 16.6C89.0698 16.6 89.2498 16.58 89.5298 16.54C89.7898 16.5 89.9898 16.48 90.1298 16.46C90.4898 16.46 90.8098 16.48 91.1098 16.52C91.1698 16.54 91.2498 16.58 91.3298 16.66C91.4098 16.74 91.4498 16.8 91.4498 16.84C91.4898 17.46 91.4898 17.98 91.4498 18.42C91.4498 18.52 91.3898 18.62 91.3098 18.72C91.2098 18.82 91.1298 18.88 91.0498 18.88C90.2898 19.02 89.5898 19.1 88.9898 19.12C88.7698 19.14 88.5898 19.08 88.4698 18.96C88.3298 18.84 88.2698 18.66 88.2698 18.42C88.2698 18.38 88.2298 18.04 88.1898 17.38Z" fill="#1C1C1C"/>
</svg>
