<svg width="375" height="812" viewBox="0 0 375 812" fill="none" xmlns="http://www.w3.org/2000/svg">
<g filter="url(#filter0_d_140_1409)">
<rect width="375" height="812" fill="#CDF6F8"/>
<path d="M341.5 369.5C353.9 333.9 372.333 329 380 331V508L203.5 513.5C210.5 489 213.6 448 214 424C214.4 400 254 380.5 280.5 391.5C297.7 367.9 327.667 363 341.5 369.5Z" fill="white"/>
<path d="M42.5 294.5C48.1 266.5 16.8333 252.5 0.5 249V360.5H163.5C168.333 361.667 177.6 360.7 176 347.5C174.4 334.3 127.667 334.667 104.5 336.5C114.9 302.5 67.5 294.333 42.5 294.5Z" fill="white" stroke="white"/>
<path d="M79 394C58 361.5 24.916 337.319 0 332V501.446H248.652C256.025 503.219 270.161 501.75 267.72 481.69C265.28 461.63 193.989 462.187 158.649 464.973C158.649 434 97.5 398 79 394Z" fill="white" stroke="white"/>
<path d="M381 512.974H1C70.8062 452.94 124.5 432 134 382.316C137.482 379.369 140.633 377.067 143.5 375.474C163.799 370.178 233.5 362.474 263 379.114C266.554 381.422 269.297 384.186 271 387.474C283.897 412.378 343.667 482.807 381 512.974Z" fill="#008C72" stroke="#008B74"/>
<path d="M255 373.5C236.892 367.256 177.5 363 143.5 373.5C143.5 373.5 135 375.5 133 380C131 384.5 127.5 391 128.5 394.5C129.5 398 164 428.5 191 400C207.8 418.8 230.333 409.5 239.5 402.5C253.1 415.3 271.166 406.167 278.5 400C281.166 394.5 269.5 378.5 255 373.5Z" fill="#61B881" stroke="#61B881"/>
<path d="M378 514H0V594L378 586.672V514Z" fill="#89D6F0" stroke="#89D6F0"/>
<path d="M259.855 439.509C259.855 446.632 258.383 456.575 262.632 462.622C268.775 471.364 272.535 473.035 280 480.5" stroke="#5DB17F" stroke-width="8" stroke-linecap="round"/>
<path d="M203 441C200.592 453.523 201.787 467.772 199 480" stroke="#5DB17F" stroke-width="8" stroke-linecap="round"/>
<path d="M142.401 441C141.365 444.991 137.619 451.529 136.365 453.991C134.876 456.916 129.957 462.842 126.865 464.491C121.673 467.261 118.109 467.112 113 469.666" stroke="#5DB17F" stroke-width="8" stroke-linecap="round"/>
<path d="M197 565.749C257.81 592.138 328.5 576.747 383 584.914V764.414H0V523.914C20.5 519.414 117.5 531.249 197 565.749Z" fill="#4CCE92"/>
<path d="M36.5 468C29.5 459.5 14.8333 449.5 0 445V607C36 607 136.4 638.7 144 623.5C151.6 608.3 127 561 96 561C108 514 67.5 518 59 522.5C59 518.5 63.8333 490.833 45.5 494C46.7 478 38.3534 470.251 36.5 468Z" fill="#42AD6D" stroke="#42AD6D"/>
<path d="M29.5 537.5C41.5 507.9 14.8333 491.5 0 487V649C36 649 109.9 645.2 117.5 630C125.1 614.8 106.333 605.667 96 603C108.4 595 101.167 585.333 96 581.5C100.8 549.9 65.3333 548.333 47 551.5C48.2 535.5 35.8333 535.5 29.5 537.5Z" fill="#036E5C" stroke="#036E5C"/>
<path d="M242.5 583.5C179.3 603.5 54.5 624.833 0 633V812.5H383V572C362.5 567.5 305.7 563.5 242.5 583.5Z" fill="#56B95F" stroke="#56B95F"/>
<circle cx="44.5" cy="593.5" r="7.5" fill="#FF9052"/>
<circle cx="17.5" cy="546.5" r="7.5" fill="#FF9052"/>
<path d="M447.735 392.646C447.735 394.744 448.25 396.842 448.25 398.94C448.25 409.431 444.643 418.873 438.459 426.216C434.336 430.413 428.667 436.183 420.937 443.526L416.299 448.247C421.452 472.9 424.544 493.882 426.606 511.716C428.667 529.55 428.152 546.86 425.06 564.695C421.968 582.529 416.299 597.216 407.023 608.756C386.409 634.983 349.82 648.096 297.255 648.096H291.586C268.911 648.096 249.328 644.424 233.867 637.605C218.407 631.836 206.554 622.918 197.793 610.854C181.818 589.872 175.634 558.925 179.241 518.011C180.787 501.225 184.394 480.244 189.548 456.115C171.511 446.673 162.75 431.462 162.75 410.48C162.75 400.514 164.811 391.072 169.965 381.631C174.603 372.713 180.787 366.419 188.517 362.223C195.732 358.551 203.462 358.551 211.708 362.223C212.738 357.502 213.769 352.781 214.8 348.06C204.493 343.864 197.278 338.094 193.155 330.226C186.456 319.21 185.94 306.622 192.125 292.984C198.824 276.198 215.315 264.658 241.082 258.364C241.597 253.643 243.144 248.922 245.205 244.201C250.358 231.612 259.634 220.073 272.518 210.631C285.402 201.189 298.801 196.993 313.23 198.042C334.875 199.616 349.304 208.533 357.034 224.269C360.126 230.563 362.188 237.382 363.218 245.25C378.163 246.3 389.501 248.922 397.231 252.594C406.507 257.839 413.207 266.232 417.845 278.296C421.968 290.361 421.452 302.95 415.268 315.539C410.115 327.079 402.384 335.471 392.078 341.766C393.108 348.06 394.654 355.404 396.716 363.272C407.023 357.502 417.329 358.026 428.667 364.321C438.974 371.14 445.673 380.581 447.735 392.646ZM253.966 248.398C247.782 262.036 248.812 272.527 256.542 279.346C262.211 284.591 274.579 288.263 293.132 289.312C312.715 290.885 328.175 289.312 340.543 284.066C348.789 280.919 352.912 276.198 353.427 270.428C354.458 252.594 352.912 238.431 348.273 228.99C342.089 216.401 330.236 209.582 312.715 207.484C300.347 206.959 289.009 210.631 277.671 219.024C266.334 227.416 258.604 237.382 253.966 248.398ZM201.916 324.98C208.616 336.52 223.56 343.339 246.236 345.437C272.003 347.536 299.831 347.536 329.206 344.913C358.065 342.815 377.133 339.143 385.894 333.898C395.17 328.652 401.869 321.309 407.023 310.818C411.661 300.852 412.176 290.885 408.569 281.444C404.961 272.527 399.808 266.232 393.624 262.56C387.44 258.888 377.133 256.266 363.734 255.217C363.734 260.462 363.218 265.708 363.218 271.477C362.188 280.919 356.004 288.263 344.151 292.984C333.844 297.18 320.445 299.278 304.469 299.278H292.616C271.487 297.704 257.573 293.508 250.358 286.689C244.69 281.968 241.597 276.198 241.082 268.855C219.438 274.625 206.039 284.066 200.885 297.18C196.247 307.671 196.763 317.112 201.916 324.98ZM172.542 410.48C172.542 426.216 178.726 438.281 191.609 445.624C193.671 437.232 196.763 423.594 201.401 405.235C204.493 391.072 207.069 380.057 209.131 372.189C203.462 369.042 197.793 368.517 192.125 371.14C186.456 374.287 181.818 379.532 178.21 386.876C174.088 394.219 172.542 402.088 172.542 410.48ZM399.292 602.986C404.446 595.642 409.084 587.774 412.176 578.857C415.268 570.465 417.329 559.974 417.329 547.909C417.329 535.845 417.329 524.83 416.814 514.863C416.299 505.422 414.753 492.308 411.661 476.048C408.569 459.787 405.992 446.673 403.93 437.232C401.869 427.79 398.262 413.103 394.139 394.219C388.986 373.238 384.863 356.977 382.801 345.962C362.188 353.305 329.206 356.453 284.371 356.453C270.457 356.453 257.573 356.453 245.72 355.404C237.99 354.879 230.775 353.305 224.076 351.207C221.499 363.796 217.376 382.155 211.192 407.333C198.309 458.738 191.094 495.98 189.032 519.06C185.94 557.351 191.094 585.676 205.523 604.56C222.014 626.59 250.358 637.605 291.586 638.13C344.151 639.179 380.225 627.115 399.292 602.986ZM430.728 419.397C435.882 414.152 438.459 407.333 438.459 398.94C438.459 397.891 437.943 396.318 437.943 394.219C436.397 384.778 431.759 377.959 424.029 372.713C414.753 367.468 406.507 367.993 399.292 373.762L403.415 391.597C408.053 411.529 411.661 426.741 414.237 436.707C421.452 429.364 427.121 423.594 430.728 419.397ZM252.935 408.382C249.328 408.382 246.236 406.808 243.659 403.137C241.082 399.465 240.051 395.269 240.051 390.023C240.051 384.778 241.082 380.581 243.659 376.91C246.236 373.762 249.328 371.664 252.935 371.664C256.542 371.664 259.634 373.762 262.211 376.91C264.788 380.581 266.334 384.778 266.334 390.023C266.334 395.269 264.788 399.465 262.211 403.137C259.634 406.808 256.542 408.382 252.935 408.382ZM348.273 388.974C348.273 384.253 349.304 380.057 351.881 376.91C354.458 373.762 357.55 371.664 361.157 371.664C364.249 371.664 367.341 373.762 369.918 376.91C372.495 380.057 374.041 384.253 374.041 388.974C374.041 393.695 372.495 397.891 369.918 401.038C367.341 404.186 364.249 405.759 361.157 405.759C357.55 405.759 354.458 404.186 351.881 401.038C349.304 397.891 348.273 393.695 348.273 388.974ZM266.334 450.345C263.242 441.428 264.273 432.511 270.457 424.118C272.003 422.02 274.579 416.775 278.702 409.431C281.794 402.612 284.371 397.367 286.432 393.695C288.494 390.023 291.07 386.351 295.193 382.155C299.316 377.959 303.439 375.861 308.077 374.812C315.292 373.762 321.991 378.483 329.206 388.974C335.905 398.94 341.059 411.005 345.181 425.167C348.789 439.33 349.304 449.296 346.212 455.066C341.059 463.459 329.721 467.655 312.199 467.655C301.893 467.655 292.101 466.606 282.825 464.508C274.579 462.934 269.426 458.213 266.334 450.345ZM278.187 429.888C274.064 435.658 273.549 441.428 275.61 446.673C277.156 451.394 280.248 454.017 284.886 454.541C293.647 457.164 303.954 458.213 315.807 457.689C327.66 457.164 334.875 454.541 337.451 450.345C339.513 446.673 338.482 438.805 335.39 426.741C331.783 414.152 327.144 403.661 321.476 394.744C316.322 387.925 312.199 384.778 309.107 384.778C302.923 385.827 295.708 395.269 287.463 413.627C283.34 422.02 280.248 427.265 278.187 429.888ZM367.341 476.572C352.912 494.406 332.298 503.324 304.469 503.324H299.316C275.095 502.274 258.088 495.455 247.782 482.867C239.536 473.425 236.444 463.459 237.99 451.919C238.505 449.296 240.051 447.722 243.144 447.722C246.236 447.722 247.782 449.821 247.782 452.968V453.492C246.751 461.885 249.328 469.229 255.512 476.572C263.757 487.063 278.702 492.308 299.831 493.357C324.568 494.406 343.12 488.112 356.519 473.949C360.642 469.753 363.734 465.032 365.795 460.311C367.856 455.591 368.887 452.443 368.887 450.345V449.296C368.887 446.149 370.433 444.575 374.041 444.575C376.102 444.575 377.648 446.149 378.679 448.247C379.194 450.87 378.679 455.066 376.617 460.311C374.556 466.081 371.464 471.327 367.341 476.572ZM259.634 514.339C265.819 515.912 270.972 519.06 274.064 523.781C277.156 528.501 278.187 533.222 277.671 538.468C276.641 544.238 274.579 548.434 271.487 551.057C275.095 557.351 276.641 563.121 276.125 568.366C275.095 573.612 272.518 577.808 267.88 580.955C268.911 587.25 267.88 592.495 265.819 596.691C263.242 600.888 259.119 602.986 253.966 603.51C251.904 604.035 250.358 604.035 248.812 604.035H248.297C237.99 604.035 225.107 601.937 210.162 596.691C207.585 596.167 206.554 594.593 206.554 591.971C206.554 588.823 208.1 587.25 211.708 587.25H212.738C230.26 593.02 243.659 595.118 252.935 593.544C254.996 593.544 256.542 592.495 257.573 590.922C259.119 588.823 259.119 585.152 257.573 580.431V578.857C257.573 576.759 258.088 575.185 260.15 574.136C263.757 572.563 265.819 570.465 266.334 567.317C266.849 563.121 264.788 557.876 259.634 552.63C258.604 551.581 258.604 550.532 258.604 548.958C258.604 545.811 260.15 544.238 263.242 544.238C265.819 544.238 267.365 542.139 267.88 537.419C268.395 530.075 264.788 525.879 257.573 523.781C245.205 521.682 229.229 521.682 209.646 523.781C209.131 524.305 208.616 524.305 208.616 524.305C205.523 524.305 203.977 522.731 203.977 519.06C203.977 516.437 205.008 514.863 208.1 514.339C228.199 511.192 245.205 511.192 259.634 514.339ZM347.243 512.241C352.396 510.143 359.611 510.143 368.887 511.716C377.648 513.814 383.832 515.388 387.955 516.437C391.562 517.486 394.654 518.535 396.716 519.584C398.777 520.633 399.808 521.682 399.808 523.781C399.808 527.452 397.746 529.026 394.654 529.026C393.624 529.026 393.108 529.026 392.593 528.501C374.041 521.682 360.126 519.584 349.819 522.207C343.635 523.781 340.543 526.403 340.543 530.6C340.543 533.222 341.059 535.845 342.089 537.943C343.12 540.041 344.151 541.615 345.181 541.615C346.727 542.664 347.758 544.238 347.758 546.336C347.758 548.434 346.727 549.483 345.697 550.532C341.574 553.155 339.513 555.777 339.513 558.925C339.513 562.072 341.574 564.695 345.697 567.842C346.727 568.891 347.758 570.464 347.758 572.038C347.758 574.136 346.727 575.185 345.181 576.234C340.028 579.382 337.451 582.004 336.936 585.152C336.421 587.25 337.451 589.348 339.513 591.446C341.574 594.593 345.181 595.642 351.366 594.593C357.034 594.069 362.703 593.02 367.857 591.446C373.01 589.872 378.163 587.774 382.801 585.152H384.863C387.955 585.152 389.501 586.725 389.501 589.872C389.501 591.971 388.47 593.544 386.924 594.593C379.709 597.74 373.01 600.363 365.795 601.937C359.611 604.035 353.942 604.56 349.304 604.56C341.574 604.56 335.905 602.461 332.298 598.265C328.175 593.544 326.114 588.823 327.144 583.578C328.175 579.382 330.752 575.185 334.875 571.514C331.267 567.317 329.721 563.121 329.721 558.925C329.721 554.728 331.267 550.007 335.39 545.811C332.298 541.615 330.752 536.894 330.752 531.649V530.075C331.783 521.158 336.936 515.388 347.243 512.241Z" fill="black"/>
<path d="M253.966 248.398C247.782 262.036 248.812 272.527 256.542 279.346C262.211 284.591 274.579 288.263 293.132 289.312C312.715 290.885 328.175 289.312 340.543 284.066C348.789 280.919 352.912 276.198 353.427 270.428C354.458 252.594 352.912 238.431 348.273 228.99C342.089 216.401 330.236 209.582 312.715 207.484C300.347 206.959 289.009 210.631 277.671 219.024C266.334 227.416 258.604 237.382 253.966 248.398Z" fill="#6A6A6A"/>
<path d="M201.916 324.98C208.616 336.52 223.56 343.339 246.236 345.437C272.003 347.536 299.831 347.536 329.206 344.913C358.065 342.815 377.133 339.143 385.894 333.898C395.17 328.652 401.869 321.309 407.023 310.818C411.661 300.852 412.176 290.885 408.569 281.444C404.961 272.527 399.808 266.232 393.624 262.56C387.44 258.888 377.133 256.266 363.734 255.217C363.734 260.462 363.218 265.708 363.218 271.477C362.188 280.919 356.004 288.263 344.151 292.984C333.844 297.18 320.445 299.278 304.469 299.278H292.616C271.487 297.704 257.573 293.508 250.358 286.689C244.69 281.968 241.597 276.198 241.082 268.855C219.438 274.625 206.039 284.066 200.885 297.18C196.247 307.671 196.763 317.112 201.916 324.98Z" fill="#6A6A6A"/>
<path d="M278.187 429.888C274.064 435.658 273.549 441.428 275.61 446.673C277.156 451.394 280.248 454.017 284.886 454.541C293.647 457.164 303.954 458.213 315.807 457.689C327.66 457.164 334.875 454.541 337.451 450.345C339.513 446.673 338.482 438.805 335.39 426.741C331.783 414.152 327.144 403.661 321.476 394.744C316.322 387.925 312.199 384.778 309.107 384.778C302.923 385.827 295.708 395.269 287.463 413.627C283.34 422.02 280.248 427.265 278.187 429.888Z" fill="#6A6A6A"/>
<path fill-rule="evenodd" clip-rule="evenodd" d="M399.292 602.986C404.446 595.642 409.084 587.774 412.176 578.857C415.268 570.465 417.329 559.974 417.329 547.909C417.329 535.845 417.329 524.83 416.814 514.863C416.299 505.422 414.753 492.308 411.661 476.048C408.569 459.787 405.992 446.673 403.93 437.232C401.869 427.79 398.262 413.103 394.139 394.219C388.986 373.238 384.863 356.977 382.801 345.962C362.188 353.305 329.206 356.453 284.371 356.453C270.457 356.453 257.573 356.453 245.72 355.404C237.99 354.879 230.775 353.305 224.076 351.207C221.499 363.796 217.376 382.155 211.192 407.333C198.309 458.738 191.094 495.98 189.032 519.06C185.94 557.351 191.094 585.676 205.523 604.56C222.014 626.59 250.358 637.605 291.586 638.13C344.151 639.179 380.225 627.115 399.292 602.986ZM243.659 403.137C246.236 406.808 249.328 408.382 252.935 408.382C256.542 408.382 259.634 406.808 262.211 403.137C264.788 399.465 266.334 395.269 266.334 390.023C266.334 384.778 264.788 380.581 262.211 376.91C259.634 373.762 256.542 371.664 252.935 371.664C249.328 371.664 246.236 373.762 243.659 376.91C241.082 380.581 240.051 384.778 240.051 390.023C240.051 395.269 241.082 399.465 243.659 403.137ZM351.881 376.91C349.304 380.057 348.273 384.253 348.273 388.974C348.273 393.695 349.304 397.891 351.881 401.038C354.458 404.186 357.55 405.759 361.157 405.759C364.249 405.759 367.341 404.186 369.918 401.038C372.495 397.891 374.041 393.695 374.041 388.974C374.041 384.253 372.495 380.057 369.918 376.91C367.341 373.762 364.249 371.664 361.157 371.664C357.55 371.664 354.458 373.762 351.881 376.91ZM270.457 424.118C264.273 432.511 263.242 441.428 266.334 450.345C269.426 458.213 274.579 462.934 282.825 464.508C292.101 466.606 301.893 467.655 312.199 467.655C329.721 467.655 341.059 463.459 346.212 455.066C349.304 449.296 348.789 439.33 345.181 425.167C341.059 411.005 335.905 398.94 329.206 388.974C321.991 378.483 315.292 373.762 308.077 374.812C303.439 375.861 299.316 377.959 295.193 382.155C291.07 386.351 288.494 390.023 286.432 393.695C284.371 397.367 281.794 402.612 278.702 409.431C274.579 416.775 272.003 422.02 270.457 424.118ZM304.469 503.324C332.298 503.324 352.912 494.406 367.341 476.572C371.464 471.327 374.556 466.081 376.617 460.311C378.679 455.066 379.194 450.87 378.679 448.247C377.648 446.149 376.102 444.575 374.041 444.575C370.433 444.575 368.887 446.149 368.887 449.296V450.345C368.887 452.443 367.856 455.591 365.795 460.311C363.734 465.032 360.642 469.753 356.519 473.949C343.12 488.112 324.568 494.406 299.831 493.357C278.702 492.308 263.757 487.063 255.512 476.572C249.328 469.229 246.751 461.885 247.782 453.492V452.968C247.782 449.821 246.236 447.722 243.144 447.722C240.051 447.722 238.505 449.296 237.99 451.919C236.444 463.459 239.536 473.425 247.782 482.867C258.088 495.455 275.095 502.274 299.316 503.324H304.469ZM274.064 523.781C270.972 519.06 265.819 515.912 259.634 514.339C245.205 511.192 228.199 511.192 208.1 514.339C205.008 514.863 203.977 516.437 203.977 519.06C203.977 522.731 205.523 524.305 208.616 524.305C208.616 524.305 209.131 524.305 209.646 523.781C229.229 521.682 245.205 521.682 257.573 523.781C264.788 525.879 268.395 530.075 267.88 537.419C267.365 542.139 265.819 544.238 263.242 544.238C260.15 544.238 258.604 545.811 258.604 548.958C258.604 550.532 258.604 551.581 259.634 552.63C264.788 557.876 266.849 563.121 266.334 567.317C265.819 570.465 263.757 572.563 260.15 574.136C258.088 575.185 257.573 576.759 257.573 578.857V580.431C259.119 585.152 259.119 588.823 257.573 590.922C256.542 592.495 254.996 593.544 252.935 593.544C243.659 595.118 230.26 593.02 212.738 587.25H211.708C208.1 587.25 206.554 588.823 206.554 591.971C206.554 594.593 207.585 596.167 210.162 596.691C225.107 601.937 237.99 604.035 248.297 604.035H248.812C250.358 604.035 251.904 604.035 253.966 603.51C259.119 602.986 263.242 600.888 265.819 596.691C267.88 592.495 268.911 587.25 267.88 580.955C272.518 577.808 275.095 573.612 276.125 568.366C276.641 563.121 275.095 557.351 271.487 551.057C274.579 548.434 276.641 544.238 277.671 538.468C278.187 533.222 277.156 528.501 274.064 523.781ZM368.887 511.716C359.611 510.143 352.396 510.143 347.243 512.241C336.936 515.388 331.783 521.158 330.752 530.075V531.649C330.752 536.894 332.298 541.615 335.39 545.811C331.267 550.007 329.721 554.728 329.721 558.925C329.721 563.121 331.267 567.317 334.875 571.514C330.752 575.185 328.175 579.382 327.144 583.578C326.114 588.823 328.175 593.544 332.298 598.265C335.905 602.461 341.574 604.56 349.304 604.56C353.942 604.56 359.611 604.035 365.795 601.937C373.01 600.363 379.709 597.74 386.924 594.593C388.47 593.544 389.501 591.971 389.501 589.872C389.501 586.725 387.955 585.152 384.863 585.152H382.801C378.163 587.774 373.01 589.872 367.857 591.446C362.703 593.02 357.034 594.069 351.366 594.593C345.181 595.642 341.574 594.593 339.513 591.446C337.451 589.348 336.421 587.25 336.936 585.152C337.451 582.004 340.028 579.382 345.181 576.234C346.727 575.185 347.758 574.136 347.758 572.038C347.758 570.464 346.727 568.891 345.697 567.842C341.574 564.695 339.513 562.072 339.513 558.925C339.513 555.777 341.574 553.155 345.697 550.532C346.727 549.483 347.758 548.434 347.758 546.336C347.758 544.238 346.727 542.664 345.181 541.615C344.151 541.615 343.12 540.041 342.089 537.943C341.059 535.845 340.543 533.222 340.543 530.6C340.543 526.403 343.635 523.781 349.819 522.207C360.126 519.584 374.041 521.682 392.593 528.501C393.108 529.026 393.624 529.026 394.654 529.026C397.746 529.026 399.808 527.452 399.808 523.781C399.808 521.682 398.777 520.633 396.716 519.584C394.654 518.535 391.562 517.486 387.955 516.437C383.832 515.388 377.648 513.814 368.887 511.716Z" fill="#6A6A6A"/>
<path d="M430.728 419.397C435.882 414.152 438.459 407.333 438.459 398.94C438.459 397.891 437.943 396.318 437.943 394.219C436.397 384.778 431.759 377.959 424.029 372.713C414.753 367.468 406.507 367.993 399.292 373.762L403.415 391.597C408.053 411.529 411.661 426.741 414.237 436.707C421.452 429.364 427.121 423.594 430.728 419.397Z" fill="#6A6A6A"/>
<path d="M172.542 410.48C172.542 426.216 178.726 438.281 191.609 445.624C193.671 437.232 196.763 423.594 201.401 405.235C204.493 391.072 207.069 380.057 209.131 372.189C203.462 369.042 197.793 368.517 192.125 371.14C186.456 374.287 181.818 379.532 178.21 386.876C174.088 394.219 172.542 402.088 172.542 410.48Z" fill="#6A6A6A"/>
</g>
<defs>
<filter id="filter0_d_140_1409" x="-4.5" y="0" width="599.5" height="821" filterUnits="userSpaceOnUse" color-interpolation-filters="sRGB">
<feFlood flood-opacity="0" result="BackgroundImageFix"/>
<feColorMatrix in="SourceAlpha" type="matrix" values="0 0 0 0 0 0 0 0 0 0 0 0 0 0 0 0 0 0 127 0" result="hardAlpha"/>
<feOffset dy="4"/>
<feGaussianBlur stdDeviation="2"/>
<feComposite in2="hardAlpha" operator="out"/>
<feColorMatrix type="matrix" values="0 0 0 0 0 0 0 0 0 0 0 0 0 0 0 0 0 0 0.25 0"/>
<feBlend mode="normal" in2="BackgroundImageFix" result="effect1_dropShadow_140_1409"/>
<feBlend mode="normal" in="SourceGraphic" in2="effect1_dropShadow_140_1409" result="shape"/>
</filter>
</defs>
</svg>
