<svg width="52" height="52" viewBox="0 0 52 52" fill="none" xmlns="http://www.w3.org/2000/svg">
<path d="M34.4131 19.0091C37.3636 21.222 39.5765 23.8652 41.1133 26.8157C42.65 29.8277 43.2647 32.7782 42.8959 35.6058C42.5885 37.6957 41.7894 39.5398 40.4986 41.138C39.1462 42.7362 37.4251 43.9656 35.2737 44.8262H35.1507L35.0278 44.8876C30.5406 45.7482 26.9753 46.117 24.2707 46.117C23.656 46.117 23.0413 46.117 22.4266 46.0556C19.8449 45.9326 17.632 45.3794 15.788 44.5188C13.5751 43.5353 11.8539 41.9986 10.686 39.9701C8.719 36.7122 8.47312 33.147 9.94838 29.2745C10.686 27.1845 11.9769 25.279 13.7595 23.6193C15.5421 22.0211 17.6935 20.7303 20.2752 19.8697L20.1523 19.1321C19.9679 18.333 19.9679 17.7183 20.0908 17.2265C20.5825 15.8127 21.2587 14.8907 22.1193 14.5219C22.9798 14.2145 24.0863 14.3375 25.4386 14.8907C25.4386 11.8787 25.4386 10.0346 25.4386 9.41992V9.05111C25.3157 8.12907 25.3771 7.51438 25.6845 7.20703C25.8074 7.02262 26.0533 6.89969 26.3607 6.89969H26.4221C26.5451 6.89969 26.668 6.89968 26.7909 6.83822C27.2827 6.83822 27.59 6.89969 27.8359 7.08409C28.0818 7.2685 28.2047 7.51438 28.2662 7.88319C28.2662 8.0676 28.3277 8.37495 28.3891 8.8667C28.3891 9.23551 28.3891 9.6658 28.4506 10.0346C29.2497 8.80523 30.1717 7.88319 31.2782 7.20703C33.6755 5.73177 36.626 5.60883 40.1298 6.83822C40.3756 6.96115 40.4986 7.14556 40.4986 7.39144V7.57585L40.4371 7.76026C40.1912 8.8667 39.8839 9.72727 39.3921 10.4034C38.4701 11.7558 37.1178 12.5548 35.2737 12.8622C32.7534 13.3539 30.3561 13.5384 28.1433 13.5384L28.2662 15.198C28.4506 15.1366 28.8194 14.9521 29.3112 14.7063C30.4176 14.2145 31.3397 13.9072 31.9544 13.9072H32.0158H32.1388C32.6305 14.0916 32.9993 14.3989 33.3067 14.7677C33.5525 15.198 33.737 15.5668 33.7984 15.8742C33.8599 16.1815 33.9214 16.6118 33.9828 17.165C34.0443 18.1485 34.1672 18.7632 34.4131 19.0091ZM41.7279 35.4214C42.0353 32.8397 41.4821 30.0736 40.0068 27.246C38.5316 24.4184 36.4416 22.0211 33.6755 19.9312L33.5525 19.8082C33.1837 19.3779 32.9379 18.5174 32.8149 17.288C32.7534 16.6118 32.692 16.1201 32.569 15.7512C32.4461 15.4439 32.2002 15.198 31.8929 15.0751C31.4011 15.1366 30.725 15.3824 29.8029 15.7512C28.9424 16.1815 28.3277 16.4274 27.8974 16.4889C27.8359 16.4889 27.8359 16.5503 27.8359 16.5503C27.59 16.6118 27.3442 16.6118 27.0983 16.6118C26.6065 16.6118 26.2377 16.5503 25.8689 16.3659H25.8074H25.746C24.6395 15.8127 23.7789 15.5054 23.2257 15.5054H23.1643C22.9184 15.5054 22.734 15.5668 22.611 15.6283C21.9963 15.8742 21.5661 16.5503 21.1972 17.5953C21.0743 17.8412 21.1358 18.2715 21.2587 18.8862C21.3816 19.5009 21.4431 19.9926 21.4431 20.3C21.3816 20.6073 21.2587 20.7917 21.0128 20.8532C18.5541 21.6523 16.4641 22.8202 14.743 24.2955C13.0218 25.8322 11.731 27.6148 10.9934 29.6433C9.64104 33.2085 9.88691 36.4049 11.6695 39.3554C13.8824 43.105 18.1238 44.9491 24.2707 44.9491C26.8524 44.9491 30.3561 44.5803 34.8434 43.7197H34.9049C36.8719 42.9206 38.4086 41.8142 39.5765 40.4004C40.7444 38.9866 41.4821 37.3269 41.7279 35.4214ZM24.9469 18.2715C24.8239 18.5174 24.7625 18.8247 24.7625 19.1321C24.7625 19.5009 24.8239 19.8697 25.0698 20.1156C25.1313 20.2385 25.1927 20.3614 25.1927 20.4844C25.1927 20.8532 24.9469 21.0376 24.578 21.0376C24.3936 21.0376 24.2707 20.9761 24.1478 20.7917C23.7789 20.3 23.5945 19.7467 23.5945 19.0706C23.5945 18.5788 23.7175 18.1485 23.9634 17.6568C24.0863 17.5339 24.2092 17.4109 24.4551 17.4109C24.8239 17.4109 25.0698 17.5953 25.0698 17.9641C25.0698 18.0871 25.0083 18.21 24.9469 18.2715ZM29.68 17.288C29.68 17.288 29.7415 17.2265 29.8644 17.2265C30.1103 17.2265 30.2947 17.4109 30.4176 17.6568C30.4791 18.0256 30.5406 18.333 30.5406 18.7018C30.5406 19.3779 30.3562 19.9926 30.0488 20.5458C29.9259 20.7303 29.7415 20.7917 29.5571 20.7917C29.1268 20.7917 28.9424 20.6073 28.9424 20.2385C28.9424 20.1156 28.9424 20.0541 29.0653 19.9312C29.2497 19.5623 29.3726 19.1935 29.3726 18.7018C29.3726 18.4559 29.3112 18.2715 29.3112 18.0256C29.2497 17.9641 29.2497 17.9027 29.2497 17.8412C29.2497 17.5953 29.3726 17.4109 29.68 17.288Z" fill="black"/>
<path fill-rule="evenodd" clip-rule="evenodd" d="M41.7279 35.4214C42.0353 32.8397 41.4821 30.0736 40.0068 27.246C38.5316 24.4184 36.4416 22.0211 33.6755 19.9312L33.5525 19.8082C33.1837 19.3779 32.9379 18.5174 32.8149 17.288C32.7534 16.6118 32.692 16.1201 32.569 15.7512C32.4461 15.4439 32.2002 15.198 31.8929 15.0751C31.4011 15.1366 30.725 15.3824 29.8029 15.7512C28.9424 16.1815 28.3277 16.4274 27.8974 16.4889C27.8359 16.4889 27.8359 16.5503 27.8359 16.5503C27.59 16.6118 27.3442 16.6118 27.0983 16.6118C26.6065 16.6118 26.2377 16.5503 25.8689 16.3659H25.8074H25.746C24.6395 15.8127 23.7789 15.5054 23.2257 15.5054H23.1643C22.9184 15.5054 22.734 15.5668 22.611 15.6283C21.9963 15.8742 21.5661 16.5503 21.1972 17.5953C21.0743 17.8412 21.1358 18.2715 21.2587 18.8862C21.3816 19.5009 21.4431 19.9926 21.4431 20.3C21.3816 20.6073 21.2587 20.7917 21.0128 20.8532C18.5541 21.6523 16.4641 22.8202 14.743 24.2955C13.0218 25.8322 11.731 27.6148 10.9934 29.6433C9.64104 33.2085 9.88691 36.4049 11.6695 39.3554C13.8824 43.105 18.1238 44.9491 24.2707 44.9491C26.8524 44.9491 30.3561 44.5803 34.8434 43.7197H34.9049C36.8719 42.9206 38.4086 41.8142 39.5765 40.4004C40.7444 38.9866 41.4821 37.3269 41.7279 35.4214ZM24.7625 19.1321C24.7625 18.8247 24.8239 18.5174 24.9469 18.2715C25.0083 18.21 25.0698 18.0871 25.0698 17.9641C25.0698 17.5953 24.8239 17.4109 24.4551 17.4109C24.2092 17.4109 24.0863 17.5339 23.9634 17.6568C23.7175 18.1485 23.5945 18.5788 23.5945 19.0706C23.5945 19.7467 23.7789 20.3 24.1478 20.7917C24.2707 20.9761 24.3936 21.0376 24.578 21.0376C24.9469 21.0376 25.1927 20.8532 25.1927 20.4844C25.1927 20.3614 25.1313 20.2385 25.0698 20.1156C24.8239 19.8697 24.7625 19.5009 24.7625 19.1321ZM29.8644 17.2265C29.7415 17.2265 29.68 17.288 29.68 17.288C29.3726 17.4109 29.2497 17.5953 29.2497 17.8412C29.2497 17.9027 29.2497 17.9641 29.3112 18.0256C29.3112 18.2715 29.3726 18.4559 29.3726 18.7018C29.3726 19.1935 29.2497 19.5623 29.0653 19.9312C28.9424 20.0541 28.9424 20.1156 28.9424 20.2385C28.9424 20.6073 29.1268 20.7917 29.5571 20.7917C29.7415 20.7917 29.9259 20.7303 30.0488 20.5458C30.3562 19.9926 30.5406 19.3779 30.5406 18.7018C30.5406 18.333 30.4791 18.0256 30.4176 17.6568C30.2947 17.4109 30.1103 17.2265 29.8644 17.2265Z" fill="#FF9052"/>
<circle cx="31.999" cy="26.9539" r="0.798301" fill="#F07A37"/>
<circle cx="35.1923" cy="33.3402" r="0.798301" fill="#F07A37"/>
<circle cx="28.8056" cy="39.7266" r="0.798301" fill="#F07A37"/>
<circle cx="16.8315" cy="35.7352" r="0.798301" fill="#F07A37"/>
<circle cx="18.4277" cy="27.7523" r="0.798301" fill="#F07A37"/>
<circle cx="24.0161" cy="34.1385" r="0.798301" fill="#F07A37"/>
</svg>
